<svg width="24" height="24" viewBox="0 0 24 24" fill="none" xmlns="http://www.w3.org/2000/svg">
<path d="M7.125 21C7.74632 21 8.25 20.4963 8.25 19.875C8.25 19.2537 7.74632 18.75 7.125 18.75C6.50368 18.75 6 19.2537 6 19.875C6 20.4963 6.50368 21 7.125 21Z" fill="#252525"/>
<path d="M16.875 21C17.4963 21 18 20.4963 18 19.875C18 19.2537 17.4963 18.75 16.875 18.75C16.2537 18.75 15.75 19.2537 15.75 19.875C15.75 20.4963 16.2537 21 16.875 21Z" fill="#252525"/>
<path d="M3.96562 6.75H20.7844L18.3094 15.4125C18.2211 15.7269 18.032 16.0036 17.7711 16.2C17.5103 16.3965 17.1922 16.5019 16.8656 16.5H7.88437C7.55783 16.5019 7.2397 16.3965 6.97886 16.2C6.71803 16.0036 6.52893 15.7269 6.44062 15.4125L3.04688 3.54375C3.00203 3.38696 2.9073 3.24905 2.77704 3.15093C2.64677 3.05282 2.48808 2.99983 2.325 3H0.75" stroke="#252525" stroke-width="1.3" stroke-linecap="round" stroke-linejoin="round"/>
</svg>
