<svg width="118" height="116" fill="none" xmlns="http://www.w3.org/2000/svg"><path fill-rule="evenodd" clip-rule="evenodd" d="M51.098 14.588a4.166 4.166 0 0 1-2.23-.311c-.706-.307-1.301-.801-1.785-1.482-.486-.694-.794-1.552-.925-2.573-.134-1.046-.04-1.961.283-2.746.323-.784.8-1.409 1.433-1.874a4.368 4.368 0 0 1 2.118-.867c.782-.1 1.482.016 2.1.347.467.243.835.571 1.107.985L52.448.193 53.96 0l1.764 13.804-1.323.169-.325-1.736c-.076.297-.2.572-.368.825-.28.42-.652.763-1.118 1.027-.453.263-.951.43-1.493.499Zm-.018-1.343c.605-.078 1.109-.296 1.511-.655.416-.36.707-.833.876-1.419.18-.6.221-1.277.124-2.033-.092-.719-.297-1.32-.615-1.805-.305-.486-.696-.84-1.173-1.061-.464-.223-.986-.297-1.566-.223-.958.123-1.66.546-2.106 1.269-.445.723-.599 1.627-.46 2.711.138 1.084.508 1.92 1.109 2.51.6.59 1.367.825 2.3.706Z" fill="#C6C2B7"/><path d="m33.773 10.178 3.876 8.708 1.393-.62-2.093-4.703c-.29-.65-.405-1.238-.347-1.765.052-.538.212-.992.479-1.36.278-.375.598-.642.957-.803a4.95 4.95 0 0 1 .66-.252c.162-.044.316-.07.465-.081l-.322-1.38a1.444 1.444 0 0 0-.532.07 4.058 4.058 0 0 0-.504.182c-.673.3-1.188.69-1.545 1.168-.346.474-.522 1.032-.528 1.675l-.827-1.343-1.132.504Z" fill="#C6C2B7"/><path fill-rule="evenodd" clip-rule="evenodd" d="M32.186 22.55c-.747.507-1.525.797-2.335.87-.8.067-1.57-.094-2.31-.483-.746-.4-1.409-1.025-1.987-1.877-.577-.852-.91-1.694-.998-2.525-.095-.842.031-1.618.378-2.33.347-.71.883-1.312 1.609-1.805.736-.499 1.469-.766 2.198-.8a3.738 3.738 0 0 1 2.077.48c.637.352 1.184.864 1.64 1.537a8.3 8.3 0 0 1 .317.5c.089.154.162.296.22.426l-5.951 4.036c.352.447.735.794 1.148 1.041.517.31 1.047.457 1.59.442.546-.032 1.087-.23 1.623-.594.579-.393.972-.82 1.18-1.284.218-.47.31-.97.273-1.498l1.39-.09c.043.492-.004.977-.141 1.454-.127.47-.35.921-.672 1.354a5.29 5.29 0 0 1-1.249 1.147Zm-1.152-6.312-4.708 3.193a3.965 3.965 0 0 1-.333-1.018c-.096-.595-.039-1.133.173-1.614.214-.5.579-.923 1.094-1.273.673-.456 1.354-.619 2.043-.487.66.118 1.236.518 1.731 1.199ZM22.139 31.146a4.166 4.166 0 0 0 1.917-1.182c.373-.4.65-.844.832-1.336.19-.5.26-1.002.208-1.504a2.673 2.673 0 0 0-.242-.87l1.356 1.13.912-.973-10.156-9.514-1.043 1.114 4.322 4.048a2.893 2.893 0 0 0-1.48-.055c-.688.14-1.301.497-1.84 1.072a4.369 4.369 0 0 0-1.08 2.018c-.191.761-.161 1.547.09 2.357.251.81.762 1.576 1.532 2.297.751.703 1.535 1.168 2.352 1.393.807.216 1.58.218 2.32.005Zm1.795-3.673c-.082.533-.331 1.022-.748 1.467-.643.687-1.384.994-2.222.922-.839-.07-1.657-.48-2.455-1.227-.797-.748-1.255-1.542-1.372-2.383-.118-.841.154-1.615.814-2.32.4-.426.85-.702 1.349-.826.508-.133 1.034-.11 1.58.07.554.17 1.095.503 1.624.999.556.52.957 1.07 1.2 1.646.243.559.32 1.11.23 1.652Z" fill="#C6C2B7"/><path d="M15.925 42.238 7.63 37.542l.658-1.16 1.338.65c-.184-.3-.31-.606-.377-.917a3.077 3.077 0 0 1-.015-1.367c.104-.467.275-.91.513-1.33a4.284 4.284 0 0 1 1.269-1.43 3.002 3.002 0 0 1 1.686-.578c.633-.036 1.31.15 2.028.557l5.309 3.005-.752 1.328-4.844-2.743c-.918-.52-1.666-.68-2.245-.483-.585.18-1.04.558-1.365 1.134-.226.398-.357.849-.394 1.354-.038.504.079 1.008.349 1.512.276.492.768.938 1.476 1.339l4.412 2.498-.751 1.327Z" fill="#C6C2B7"/><path fill-rule="evenodd" clip-rule="evenodd" d="M13.231 50.358c.578-.573.993-1.292 1.245-2.159a5.29 5.29 0 0 0 .231-1.68 4.028 4.028 0 0 0-.345-1.47 3.978 3.978 0 0 0-.819-1.212l-1.013.956c.365.384.613.827.745 1.329.135.49.105 1.07-.09 1.74-.182.623-.473 1.12-.873 1.494-.408.357-.91.581-1.506.672a4.27 4.27 0 0 1-1.549-.07l2.012-6.903a4.454 4.454 0 0 0-.441-.188 8.361 8.361 0 0 0-.562-.184c-.781-.227-1.529-.273-2.244-.137a3.737 3.737 0 0 0-1.906.953c-.54.491-.935 1.164-1.184 2.018-.245.842-.274 1.647-.088 2.417.186.769.584 1.447 1.194 2.035.597.585 1.39 1.021 2.378 1.31.988.287 1.898.347 2.728.178a4.139 4.139 0 0 0 2.087-1.099Zm-5.259-.827a3.964 3.964 0 0 1-.905-.572c-.454-.397-.753-.848-.897-1.354-.152-.52-.141-1.08.033-1.678.227-.78.649-1.34 1.263-1.677.583-.33 1.283-.39 2.098-.18L7.972 49.53Z" fill="#C6C2B7"/><path d="M12.951 59.271c-.055 1.194-.364 2.216-.925 3.068-.573.839-1.353 1.477-2.34 1.915-.987.425-2.147.606-3.48.544-1.333-.061-2.47-.362-3.412-.902-.941-.552-1.651-1.291-2.13-2.217-.491-.926-.71-1.973-.656-3.141.058-1.244.34-2.242.845-2.995.506-.765 1.26-1.367 2.26-1.804l.696 1.426c-.736.245-1.303.664-1.7 1.257-.408.579-.632 1.306-.673 2.182-.04.85.129 1.616.505 2.295.363.665.917 1.206 1.661 1.622.732.403 1.625.629 2.679.678 1.053.049 1.968-.068 2.745-.35.764-.295 1.364-.751 1.8-1.367.423-.63.656-1.407.7-2.334a5.26 5.26 0 0 0-.124-1.456 3.474 3.474 0 0 0-.555-1.209 2.723 2.723 0 0 0-.972-.846c-.397-.21-.869-.327-1.415-.352l-.438-.02-.185 3.998-1.428-.066.25-5.389 6.34.294-.055 1.2-1.699-.024c.495.34.888.78 1.181 1.316.399.731.574 1.624.525 2.677Z" fill="#C6C2B7"/><path fill-rule="evenodd" clip-rule="evenodd" d="M100.701 68.49c.104-.64.322-1.223.652-1.749.33-.525.814-.923 1.45-1.193.539-.218 1.211-.285 2.017-.2.228-.873.603-1.62 1.124-2.242.666-.767 1.515-1.312 2.546-1.633 1.029-.308 2.202-.355 3.519-.14 1.317.215 2.414.632 3.292 1.251.875.632 1.5 1.417 1.876 2.354.385.951.482 2.016.29 3.195-.193 1.18-.622 2.152-1.288 2.92-.655.781-1.497 1.326-2.526 1.635-1.031.32-2.205.374-3.522.16-1.317-.216-2.414-.64-3.289-1.271-.878-.62-1.509-1.405-1.895-2.357-.305-.762-.423-1.605-.352-2.527-.476-.034-.86.012-1.151.138-.388.169-.668.426-.841.77a3.84 3.84 0 0 0-.384 1.174c-.076.464-.083.901-.021 1.31.062.41.18.75.355 1.024l-1.472.262c-.215-.344-.347-.797-.397-1.359a5.504 5.504 0 0 1 .017-1.523Zm15.354-.587c.14-.853.06-1.626-.239-2.318-.287-.69-.779-1.267-1.476-1.728-.685-.46-1.548-.774-2.589-.944-1.041-.17-1.966-.147-2.773.07-.796.217-1.445.607-1.949 1.169-.491.563-.806 1.272-.945 2.125-.141.865-.068 1.637.221 2.315.299.693.791 1.269 1.476 1.728.697.461 1.566.777 2.607.947 1.041.17 1.96.145 2.755-.072.808-.216 1.457-.606 1.948-1.17.502-.549.823-1.256.964-2.122Z" fill="#C6C2B7"/><path d="M102.079 76.427c.244-.56.58-1.044 1.009-1.453a2.985 2.985 0 0 1 1.539-.764c.61-.094 1.293.023 2.05.354l5.731 2.5-.609 1.398-5.365-2.34c-.885-.386-1.58-.461-2.086-.224-.494.242-.893.713-1.198 1.412-.142.326-.23.669-.262 1.03-.021.364.032.72.158 1.066.133.363.356.696.667.999.307.314.717.582 1.229.806l4.753 2.073-.61 1.398-8.736-3.811.533-1.223 1.366.492a3.009 3.009 0 0 1-.612-1.744c-.009-.614.139-1.27.443-1.97Z" fill="#C6C2B7"/><path fill-rule="evenodd" clip-rule="evenodd" d="M102.426 92.15c-.533.085-1.087-.083-1.662-.501l-.295-.215 1.488-3.208c.367-.785.503-1.512.406-2.179-.093-.65-.427-1.183-1.003-1.602-.462-.336-.935-.507-1.418-.513a2.66 2.66 0 0 0-1.378.436 4.22 4.22 0 0 0-1.15 1.096c-.262.36-.471.765-.627 1.217a3.82 3.82 0 0 0-.174 1.406c.019.233.07.458.151.674-.18-.08-.357-.13-.533-.15-.323-.03-.627.031-.912.185-.285.154-.536.38-.753.678-.239.33-.382.634-.429.914l.927.768c.083-.222.196-.43.338-.626.284-.39.61-.451.98-.182l3.731 2.714c.607.44 1.197.666 1.772.675a2.803 2.803 0 0 0 1.637-.435c.524-.31.988-.743 1.392-1.298.598-.822.919-1.642.963-2.458.054-.81-.132-1.526-.558-2.15l-1.345.553c.386.549.558 1.09.515 1.624-.032.542-.243 1.08-.632 1.615-.411.565-.888.886-1.431.963Zm-2.977-1.458 1.168-2.568c.263-.578.392-1.058.387-1.44-.006-.38-.173-.69-.502-.93-.318-.232-.67-.3-1.055-.202-.382.115-.742.403-1.078.866a4.02 4.02 0 0 0-.509.926c-.12.338-.18.67-.184.998.008.336.085.651.232.946.157.303.4.574.728.813l.813.591Z" fill="#C6C2B7"/><path d="m102.144 101.905-8.216-8.039c-.345-.338-.648-.51-.91-.516-.25.003-.514.145-.79.427-.177.181-.31.345-.399.49a6.097 6.097 0 0 0-.317.623l-.78-1.11a2.72 2.72 0 0 1 .33-.61c.133-.209.288-.404.466-.585.542-.554 1.096-.821 1.663-.8.557.03 1.145.347 1.762.951l8.258 8.079-1.067 1.09ZM97.117 103.607c-.296-.019-.576.08-.84.299-.265.219-.41.471-.438.757-.029.305.066.589.285.853.218.265.476.407.772.426.294.037.574-.054.838-.273.265-.219.411-.48.44-.784.027-.286-.069-.562-.287-.826-.219-.265-.475-.415-.77-.452ZM88.449 95.636l6.074 7.345 1.175-.971-6.074-7.346-1.175.972ZM90.33 109.381l-1.411-2.31-2.961 1.809-.686-1.123 2.961-1.808-2.911-4.767c-.245-.401-.541-.63-.888-.686-.347-.056-.7.025-1.058.244-.314.192-.552.411-.714.659-.161.248-.278.52-.35.817l-1.12-.812c.11-.38.298-.741.566-1.083.257-.336.608-.64 1.052-.91a3.66 3.66 0 0 1 1.284-.495c.451-.067.88-.009 1.29.173.405.2.772.556 1.1 1.07l3.05 4.995 1.628-.994.685 1.123-1.627.993 1.193 1.953-1.083 1.152ZM75.726 101.388l-.103 12 1.526-.598-.125-6.423-.05-2.007 1.17 1.363 4.488 4.915 1.615-.634-5.468-5.636-1.716-1.764.009-1.334c-.003-.668.095-1.15.293-1.446.197-.296.45-.505.758-.625.26-.102.547-.154.86-.154.298-.007.607.049.927.169l-.097-1.395a3.352 3.352 0 0 0-1.061-.096 3.66 3.66 0 0 0-1.188.261c-.426.168-.768.39-1.027.67-.276.272-.477.63-.602 1.076-.142.438-.212.991-.21 1.658ZM67.969 106.33l-.11 9.531-1.335-.015-.078-1.488c-.35.58-.8 1.001-1.35 1.261a3.932 3.932 0 0 1-1.72.381 4.136 4.136 0 0 1-1.9-.48c-.594-.312-1.046-.787-1.356-1.426a2.675 2.675 0 0 1-.87 1.038 3.706 3.706 0 0 1-1.208.596c-.447.135-.867.2-1.26.195a4.056 4.056 0 0 1-1.731-.401 3.24 3.24 0 0 1-1.359-1.198c-.35-.538-.52-1.226-.51-2.065l.07-6.099 1.526.017-.069 5.948c-.01.864.199 1.489.626 1.875.428.386.96.583 1.595.591.496.005.96-.11 1.396-.346a2.74 2.74 0 0 0 1.06-1.056c.26-.467.394-1.044.402-1.73l.06-5.223 1.525.018-.069 5.947c-.01.864.2 1.489.627 1.876.428.386.96.583 1.595.59.419.005.852-.105 1.3-.328.434-.211.8-.556 1.098-1.036.298-.479.452-1.113.46-1.901l.06-5.09 1.525.018Z" fill="#C6C2B7"/><path fill-rule="evenodd" clip-rule="evenodd" d="M43.618 111.801c-.263-.471-.297-1.049-.103-1.734l.1-.351 3.523.288c.865.073 1.593-.051 2.186-.371.577-.312.963-.811 1.157-1.496.156-.55.153-1.053-.009-1.508a2.662 2.662 0 0 0-.885-1.142 4.213 4.213 0 0 0-1.426-.701 4.584 4.584 0 0 0-1.36-.167 3.82 3.82 0 0 0-1.379.322 2.511 2.511 0 0 0-.58.375 1.818 1.818 0 0 0-.043-.551 1.566 1.566 0 0 0-.49-.793 2.278 2.278 0 0 0-.896-.472c-.391-.11-.726-.139-1.006-.086l-.4 1.134c.237.002.472.035.704.101.465.132.635.417.51.858l-1.257 4.438c-.204.722-.212 1.354-.022 1.896.174.551.5 1.013.975 1.386.472.385 1.038.67 1.699.857.978.277 1.858.296 2.64.055.777-.229 1.386-.651 1.824-1.267l-.984-1.071c-.381.552-.83.901-1.346 1.045-.52.157-1.098.145-1.734-.035-.672-.191-1.139-.527-1.398-1.01Zm.34-3.298 2.814.208c.633.048 1.128.003 1.484-.134.356-.137.59-.401.7-.792a1.21 1.21 0 0 0-.175-1.06c-.24-.319-.635-.557-1.186-.713a4.059 4.059 0 0 0-1.045-.157 3.035 3.035 0 0 0-1 .173 2.208 2.208 0 0 0-.807.544c-.23.251-.4.573-.512.964l-.273.967Z" fill="#C6C2B7"/><path d="m34.17 112.948 1.192-2.431-3.115-1.528.58-1.181 3.114 1.528 2.46-5.015c.207-.422.241-.794.102-1.117-.139-.323-.396-.577-.773-.762-.33-.162-.644-.245-.94-.248a2.582 2.582 0 0 0-.877.143l.084-1.382c.38-.111.786-.145 1.218-.103.42.037.865.17 1.333.399.434.213.802.486 1.106.819.298.344.48.738.546 1.18.05.449-.055.95-.312 1.503l-2.577 5.255 1.711.839-.579 1.181-1.712-.839-1.007 2.054-1.554-.295ZM27.443 105.98l-1.577 2.201 1.484.547 1.332-1.86 1.55 1.11.766-1.069-1.55-1.11 3.408-4.758c.345-.503.53-.98.556-1.43a2.285 2.285 0 0 0-.344-1.255 3.658 3.658 0 0 0-.956-.99c-.423-.303-.84-.508-1.249-.613a3.203 3.203 0 0 0-1.218-.1l-.31 1.35c.301-.05.597-.049.888.003a2.2 2.2 0 0 1 .886.4c.341.244.554.537.637.879.084.341-.011.703-.285 1.085l-3.252 4.541-2.82-2.02-.767 1.069 2.82 2.02Z" fill="#C6C2B7"/><path fill-rule="evenodd" clip-rule="evenodd" d="M26.182 92.291c.62.656 1.03 1.379 1.232 2.166a4.139 4.139 0 0 1-.109 2.357c-.275.801-.787 1.555-1.536 2.262-.748.706-1.526 1.169-2.332 1.388-.816.228-1.603.228-2.36-.001-.758-.229-1.438-.662-2.04-1.3-.61-.647-.99-1.328-1.14-2.042a3.737 3.737 0 0 1 .143-2.127c.244-.685.662-1.307 1.254-1.865.157-.148.305-.279.443-.392.138-.112.267-.208.386-.285l4.934 5.23c.385-.419.666-.852.845-1.3.223-.56.284-1.106.182-1.64-.12-.533-.401-1.036-.846-1.508-.48-.508-.965-.828-1.456-.959-.499-.14-1.007-.15-1.523-.03l-.31-1.358c.48-.121.966-.152 1.458-.093.485.05.966.2 1.444.447.46.247.904.597 1.331 1.05Zm-6.048 2.145 3.904 4.138a3.967 3.967 0 0 1-.952.491c-.572.19-1.112.22-1.62.088-.527-.132-1.004-.425-1.432-.878-.558-.592-.827-1.238-.806-1.938.01-.67.313-1.304.906-1.9Z" fill="#C6C2B7"/><path d="m13.874 92.861 7.966-5.234-.837-1.274-4.302 2.826c-.595.39-1.157.6-1.685.628-.54.036-1.014-.049-1.421-.252-.415-.215-.73-.486-.946-.816a4.953 4.953 0 0 1-.356-.61c-.07-.152-.121-.3-.155-.445l-1.31.541c.013.159.065.33.155.514.084.173.17.329.261.467.405.616.873 1.061 1.403 1.336.524.265 1.103.348 1.738.25l-1.191 1.034.68 1.035ZM17.048 79.001c.365.854.52 1.72.468 2.6a4.237 4.237 0 0 1-.838 2.306l-1.369-.825a3.2 3.2 0 0 0 .783-1.661c.089-.632-.016-1.3-.316-2-.265-.62-.589-1.055-.972-1.305-.396-.246-.786-.287-1.172-.122a1.111 1.111 0 0 0-.56.53c-.146.242-.17.605-.075 1.09l.461 2.29c.19.928.16 1.666-.09 2.215-.254.537-.685.936-1.293 1.195-.479.205-.974.258-1.486.159-.518-.11-1-.367-1.449-.77-.465-.41-.845-.959-1.14-1.648-.37-.865-.512-1.668-.428-2.409.084-.74.374-1.39.868-1.946l1.273.845c-.429.418-.666.9-.71 1.443a3.073 3.073 0 0 0 .224 1.542c.18.421.393.758.64 1.012.242.243.503.4.783.474.264.067.524.046.781-.064s.46-.3.606-.57c.136-.265.148-.657.037-1.177l-.481-2.386c-.186-.888-.162-1.575.072-2.062.234-.487.62-.846 1.158-1.075a2.705 2.705 0 0 1 1.642-.184c.534.118 1.024.392 1.47.823.448.43.818.991 1.113 1.68ZM12.401 72.236c-.163.28-.198.598-.104.954.094.357.28.616.56.78.279.162.597.197.953.103.357-.093.617-.28.78-.56.163-.279.197-.596.104-.953-.094-.356-.28-.616-.56-.78-.28-.162-.597-.197-.954-.103-.356.093-.616.28-.779.56Z" fill="#C6C2B7"/><path fill-rule="evenodd" clip-rule="evenodd" d="M65.792 5.035c-.643-.461-1.414-.737-2.312-.827-.885-.089-1.695.028-2.43.35-.735.322-1.336.836-1.803 1.543-.466.694-.75 1.553-.853 2.577-.103 1.024.004 1.93.32 2.715.32.772.806 1.39 1.462 1.852.656.462 1.427.737 2.312.826.898.09 1.708-.026 2.43-.35a4.138 4.138 0 0 0 1.801-1.523c.467-.707.752-1.572.855-2.597.103-1.024-.004-1.922-.323-2.695-.317-.786-.803-1.41-1.459-1.871Zm-4.138.752c.485-.245 1.05-.335 1.694-.27.645.065 1.18.266 1.607.602.426.337.731.789.917 1.357.2.556.261 1.214.185 1.973-.075.746-.267 1.378-.574 1.896-.295.52-.685.902-1.17 1.147-.484.245-1.048.335-1.693.27-.645-.064-1.18-.265-1.607-.602-.425-.336-.738-.79-.936-1.358-.185-.568-.24-1.225-.166-1.971.077-.76.262-1.392.555-1.899.308-.518.704-.9 1.188-1.145ZM72.213 15.86c-.857-.282-1.563-.72-2.116-1.317a4.138 4.138 0 0 1-1.027-2.124c-.14-.835-.05-1.742.272-2.72.321-.978.784-1.756 1.389-2.333.608-.589 1.3-.964 2.075-1.124.775-.16 1.579-.103 2.412.171.845.278 1.504.695 1.976 1.252.485.56.781 1.206.888 1.937.112.72.04 1.465-.213 2.238-.068.205-.135.39-.203.555-.067.165-.135.31-.203.435l-6.831-2.245a4.273 4.273 0 0 0-.123 1.545c.071.598.278 1.108.622 1.528.359.413.847.72 1.462.923.664.218 1.243.268 1.737.149a3.017 3.017 0 0 0 1.354-.699l.92 1.045a3.979 3.979 0 0 1-1.238.777c-.45.187-.944.285-1.482.295a5.291 5.291 0 0 1-1.671-.288Zm-1.11-6.545 5.404 1.776c.237-.807.2-1.508-.109-2.103-.316-.625-.86-1.065-1.633-1.319-.592-.195-1.15-.224-1.676-.09-.51.127-.971.41-1.383.85a3.963 3.963 0 0 0-.603.886Z" fill="#C6C2B7"/><path d="M79.125 17.747a5.674 5.674 0 0 0 1.928 1.804c.649.376 1.281.604 1.897.682.616.079 1.173.005 1.67-.22a2.705 2.705 0 0 0 1.207-1.128c.294-.506.39-1.024.286-1.554-.104-.53-.495-1.096-1.175-1.697l-1.812-1.625c-.4-.35-.624-.671-.674-.965a1.236 1.236 0 0 1 .145-.82c.14-.241.337-.414.588-.518a1.73 1.73 0 0 1 .911-.088c.35.056.722.199 1.118.429.45.261.817.629 1.101 1.102.29.463.388.99.294 1.582l1.526-.084a3.452 3.452 0 0 0-.468-2.08c-.375-.643-.97-1.202-1.783-1.674-.648-.377-1.281-.59-1.899-.64-.6-.055-1.14.028-1.621.248-.47.227-.836.566-1.098 1.017-.332.57-.439 1.148-.322 1.73.129.59.546 1.2 1.252 1.83l1.74 1.561c.366.33.563.636.591.917.045.276 0 .53-.133.76-.21.363-.548.564-1.012.603-.457.029-.977-.126-1.56-.465-.659-.383-1.142-.854-1.448-1.415a3.2 3.2 0 0 1-.366-1.8l-1.59.157c-.001.837.234 1.621.707 2.351ZM89.653 24.927l7.097-6.363.891.994-1.044 1.06c.344-.078.674-.1.99-.064.465.043.899.184 1.3.422.41.247.775.55 1.097.91.459.511.775 1.064.95 1.658.184.587.187 1.18.01 1.783-.168.612-.56 1.193-1.175 1.745l-4.542 4.072-1.018-1.136 4.145-3.715c.785-.704 1.176-1.363 1.174-1.975.015-.61-.198-1.163-.639-1.655a3.19 3.19 0 0 0-1.157-.805c-.467-.197-.981-.247-1.545-.152-.554.105-1.134.429-1.74.971l-3.776 3.385-1.018-1.135Z" fill="#C6C2B7"/><path fill-rule="evenodd" clip-rule="evenodd" d="M107.989 34.152c.011-.791-.203-1.581-.642-2.37-.433-.777-.991-1.375-1.675-1.795-.684-.419-1.45-.618-2.296-.598-.836.014-1.704.271-2.603.772-.9.5-1.581 1.105-2.045 1.814a4.138 4.138 0 0 0-.685 2.258c-.005.802.21 1.592.642 2.37.439.788.997 1.386 1.675 1.794.684.42 1.444.622 2.28.608.847-.02 1.72-.281 2.619-.782.9-.5 1.576-1.102 2.028-1.804.464-.71.698-1.465.702-2.267Zm-2.981-2.966c.478.257.875.67 1.19 1.236.315.566.456 1.12.423 1.662-.033.542-.23 1.051-.59 1.528-.342.482-.847.908-1.513 1.279-.656.364-1.284.569-1.885.612-.595.055-1.131-.047-1.609-.304-.478-.258-.874-.67-1.19-1.236-.315-.567-.456-1.12-.423-1.663.033-.542.227-1.057.58-1.544.36-.477.868-.898 1.523-1.262.667-.371 1.292-.58 1.876-.63.601-.043 1.14.064 1.618.322Z" fill="#C6C2B7"/><path d="m114.125 40.417-2.569.855 1.096 3.292-1.248.416-1.096-3.292-5.299 1.764c-.446.148-.736.385-.869.71-.132.326-.133.688 0 1.086.116.35.277.631.482.844.205.213.444.388.717.525l-1.043.91a3.195 3.195 0 0 1-.928-.797c-.269-.325-.486-.735-.651-1.23a3.656 3.656 0 0 1-.192-1.362c.036-.454.189-.86.458-1.218.286-.349.716-.626 1.291-.83l5.553-1.85-.603-1.808 1.248-.416.603 1.81 2.17-.723.88 1.314ZM106.322 50.9c.182-.267.238-.582.169-.944-.069-.362-.237-.634-.505-.816-.267-.181-.582-.238-.944-.169-.362.07-.634.238-.816.505-.182.268-.238.583-.169.945.069.362.237.634.505.816.267.181.582.238.944.169.362-.07.634-.238.816-.505Z" fill="#C6C2B7"/></svg>