<svg width="118" height="116" viewBox="0 0 118 116" fill="none" xmlns="http://www.w3.org/2000/svg">
<path fill-rule="evenodd" clip-rule="evenodd" d="M51.0979 14.5876C50.3164 14.6875 49.5728 14.584 48.8673 14.277C48.1618 13.97 47.567 13.4759 47.0827 12.7947C46.5968 12.1009 46.2886 11.2435 46.1581 10.2224C46.0243 9.17606 46.1187 8.26073 46.4412 7.47638C46.7637 6.69204 47.2412 6.06726 47.8736 5.60204C48.5043 5.12422 49.2105 4.83534 49.9921 4.73542C50.7737 4.63549 51.4739 4.75097 52.0928 5.08184C52.5586 5.32475 52.9273 5.6533 53.1989 6.06748L52.4479 0.193402L53.9607 0L55.7254 13.8038L54.4018 13.973L54.0771 12.2373C54.0005 12.5345 53.8778 12.8095 53.7088 13.0623C53.4294 13.4824 53.0568 13.8247 52.5909 14.0892C52.1377 14.3522 51.64 14.5183 51.0979 14.5876ZM51.08 13.2446C51.6851 13.1672 52.1889 12.9491 52.5914 12.5901C53.0066 12.2296 53.2985 11.7566 53.4671 11.1713C53.6467 10.5718 53.6881 9.89388 53.5914 9.13751C53.4995 8.41895 53.2945 7.81736 52.9763 7.33274C52.6707 6.84651 52.2796 6.49293 51.8029 6.272C51.3388 6.04946 50.8168 5.97526 50.237 6.0494C49.2789 6.17189 48.577 6.59474 48.1314 7.31795C47.6857 8.04116 47.5322 8.94484 47.6708 10.029C47.8094 11.1131 48.179 11.9499 48.7797 12.5393C49.3804 13.1288 50.1471 13.3639 51.08 13.2446Z" fill="#C6C2B7"/>
<path d="M33.7728 10.1778L37.649 18.8857L39.0422 18.2655L36.9491 13.5632C36.6597 12.9131 36.5439 12.3247 36.6016 11.7982C36.6542 11.2601 36.814 10.8064 37.0809 10.4372C37.3594 10.0628 37.6786 9.79555 38.0385 9.63533C38.3172 9.5113 38.5371 9.42729 38.6984 9.38333C38.8597 9.33936 39.0145 9.31218 39.1629 9.30177L38.8408 7.92189C38.6821 7.90907 38.5047 7.9324 38.3086 7.99187C38.1241 8.04617 37.9564 8.10692 37.8054 8.1741C37.132 8.47386 36.6167 8.86321 36.2596 9.34214C35.914 9.81591 35.7382 10.3741 35.7321 11.0167L34.9048 9.6739L33.7728 10.1778Z" fill="#C6C2B7"/>
<path fill-rule="evenodd" clip-rule="evenodd" d="M32.1861 22.5507C31.4394 23.0572 30.6609 23.3472 29.8508 23.4206C29.0511 23.487 28.2814 23.3257 27.5416 22.9368C26.7947 22.5374 26.1323 21.9117 25.5544 21.0598C24.9766 20.2078 24.6438 19.3663 24.5561 18.5351C24.4613 17.6934 24.5873 16.9169 24.9341 16.2056C25.2809 15.4944 25.8172 14.8926 26.5429 14.4004C27.2792 13.901 28.012 13.6343 28.7414 13.6003C29.4813 13.5592 30.1734 13.7193 30.8178 14.0807C31.4551 14.4317 32.002 14.9437 32.4586 15.6168C32.5799 15.7956 32.6852 15.9622 32.7745 16.1166C32.8639 16.271 32.9373 16.4132 32.9947 16.5431L27.0438 20.5794C27.3958 21.0258 27.7785 21.3728 28.192 21.6203C28.7091 21.9299 29.239 22.0773 29.7818 22.0623C30.3279 22.0298 30.8691 21.8316 31.4055 21.4678C31.984 21.0754 32.3771 20.6475 32.5849 20.1841C32.8032 19.7136 32.8944 19.2141 32.8585 18.6856L34.2483 18.5952C34.291 19.0884 34.2438 19.5734 34.1066 20.0504C33.9799 20.5202 33.7562 20.9714 33.4354 21.404C33.1179 21.8189 32.7015 22.2012 32.1861 22.5507ZM31.034 16.2376L26.3262 19.4307C26.1614 19.0825 26.0505 18.7431 25.9933 18.4126C25.8969 17.8176 25.9543 17.2796 26.1655 16.7986C26.3801 16.2998 26.745 15.8757 27.2604 15.5261C27.9335 15.0696 28.6143 14.9073 29.3027 15.0393C29.9623 15.1571 30.5394 15.5565 31.034 16.2376Z" fill="#C6C2B7"/>
<path fill-rule="evenodd" clip-rule="evenodd" d="M22.1386 31.1458C22.8779 30.9328 23.5169 30.5388 24.0556 29.9637C24.4291 29.5649 24.7068 29.1197 24.8885 28.6282C25.0789 28.1275 25.148 27.6262 25.0956 27.1244C25.0647 26.822 24.9841 26.5318 24.8536 26.2539L26.21 27.3847L27.1222 26.4107L16.9656 16.8975L15.923 18.0106L20.2451 22.0588C19.7719 21.9127 19.2783 21.8945 18.7645 22.0042C18.0768 22.1436 17.4636 22.5008 16.9249 23.0759C16.3863 23.6509 16.0261 24.3236 15.8445 25.0938C15.6537 25.8553 15.6839 26.6411 15.9351 27.451C16.1864 28.261 16.697 29.0266 17.4669 29.7477C18.2182 30.4514 19.0021 30.9158 19.8187 31.1408C20.626 31.3572 21.3993 31.3588 22.1386 31.1458ZM23.9336 27.4726C23.8521 28.0058 23.6029 28.495 23.1859 28.9402C22.543 29.6266 21.8023 29.934 20.9637 29.8625C20.1252 29.7911 19.3071 29.3818 18.5094 28.6346C17.7117 27.8874 17.2541 27.0932 17.1367 26.2519C17.0193 25.4105 17.2907 24.6374 17.951 23.9324C18.3506 23.5058 18.8002 23.2303 19.2996 23.1061C19.8077 22.9726 20.3345 22.9958 20.8799 23.1758C21.4339 23.3465 21.9753 23.6794 22.504 24.1746C23.0605 24.6959 23.4606 25.2448 23.7042 25.8212C23.9473 26.3797 24.0237 26.9302 23.9336 27.4726Z" fill="#C6C2B7"/>
<path d="M15.925 42.2384L7.63048 37.5424L8.28792 36.3812L9.62645 37.0323C9.44173 36.7316 9.31598 36.4258 9.24922 36.1149C9.1418 35.6597 9.13683 35.2042 9.23432 34.7482C9.33808 34.2812 9.50892 33.8376 9.74685 33.4173C10.085 32.8201 10.5079 32.344 11.0156 31.9888C11.5123 31.6274 12.0743 31.4345 12.7016 31.4099C13.3352 31.3743 14.0114 31.56 14.7302 31.9669L20.0387 34.9724L19.2873 36.2995L14.4433 33.557C13.5254 33.0374 12.7768 32.8764 12.1975 33.0742C11.6134 33.2546 11.1585 33.6324 10.833 34.2075C10.6075 34.6056 10.4761 35.057 10.4387 35.5616C10.4013 36.0661 10.5176 36.5701 10.7876 37.0735C11.0639 37.5658 11.5559 38.0123 12.2637 38.413L16.6764 40.9113L15.925 42.2384Z" fill="#C6C2B7"/>
<path fill-rule="evenodd" clip-rule="evenodd" d="M13.2313 50.3582C13.8087 49.7852 14.2236 49.0655 14.476 48.1992C14.6503 47.6014 14.7274 47.0414 14.7075 46.5193C14.6789 45.9815 14.5637 45.4912 14.3618 45.0485C14.1634 44.5935 13.8906 44.1897 13.5433 43.837L12.5301 44.7926C12.8947 45.1769 13.1429 45.6199 13.2746 46.1216C13.41 46.6111 13.3798 47.1914 13.1843 47.8625C13.0029 48.4847 12.7122 48.9825 12.3122 49.3557C11.9036 49.7131 11.4014 49.9374 10.8056 50.0285C10.3292 50.1014 9.81313 50.0781 9.25738 49.9585L11.2693 43.0551C11.1422 42.9916 10.995 42.9288 10.8278 42.8669C10.6605 42.8049 10.4732 42.7437 10.2657 42.6832C9.48485 42.4556 8.73706 42.4098 8.02234 42.5457C7.29543 42.678 6.66005 42.9958 6.11622 43.4992C5.57594 43.9904 5.18135 44.663 4.93243 45.5171C4.68708 46.359 4.65751 47.1645 4.84373 47.9336C5.02994 48.7027 5.42787 49.3813 6.03751 49.9693C6.63495 50.5538 7.42781 50.99 8.41611 51.2781C9.40441 51.5661 10.3136 51.6259 11.1437 51.4574C11.9616 51.2854 12.6575 50.919 13.2313 50.3582ZM7.97218 49.531C7.62328 49.3677 7.32145 49.177 7.06671 48.9587C6.61318 48.5618 6.31443 48.1107 6.17046 47.6054C6.01784 47.0844 6.02865 46.525 6.20289 45.9271C6.43047 45.1462 6.85153 44.5872 7.46605 44.25C8.04935 43.9203 8.74861 43.8602 9.56382 44.0697L7.97218 49.531Z" fill="#C6C2B7"/>
<path d="M12.951 59.2714C12.8957 60.4648 12.5875 61.4874 12.0264 62.3392C11.4532 63.1778 10.673 63.8159 9.68579 64.2536C8.69918 64.6786 7.53939 64.8602 6.20639 64.7985C4.8734 64.7367 3.73595 64.4359 2.79406 63.8961C1.85276 63.3436 1.14274 62.6046 0.66401 61.6791C0.172582 60.753 -0.0460699 59.706 0.00805457 58.538C0.0657089 57.2939 0.347341 56.2955 0.852949 55.5429C1.35915 54.7775 2.11219 54.1763 3.11207 53.7392L3.80937 55.1646C3.0728 55.4104 2.50631 55.8294 2.10991 56.4217C1.70141 57.0008 1.47686 57.7283 1.43626 58.6042C1.39685 59.4548 1.56497 60.2196 1.94062 60.8986C2.30417 61.5642 2.85797 62.1052 3.60203 62.5213C4.33399 62.9242 5.22682 63.15 6.28052 63.1989C7.33422 63.2477 8.24928 63.1311 9.0257 62.849C9.79001 62.5536 10.39 62.098 10.8257 61.482C11.2492 60.8528 11.4825 60.0748 11.5254 59.1481C11.5495 58.6276 11.5084 58.1422 11.4021 57.692C11.2836 57.2285 11.0987 56.8256 10.8474 56.4831C10.5967 56.128 10.2726 55.8458 9.87519 55.6366C9.47777 55.4273 9.00611 55.31 8.46022 55.2847L8.02223 55.2644L7.83692 59.2634L6.40871 59.1972L6.65844 53.8081L12.9997 54.102L12.9441 55.3017L11.245 55.2782C11.7395 55.6186 12.1332 56.0573 12.4262 56.5945C12.8249 57.3254 12.9998 58.2177 12.951 59.2714Z" fill="#C6C2B7"/>
<path fill-rule="evenodd" clip-rule="evenodd" d="M100.701 68.4891C100.805 67.8494 101.023 67.2668 101.353 66.7412C101.683 66.2157 102.167 65.8181 102.803 65.5484C103.342 65.33 104.014 65.2634 104.82 65.3488C105.048 64.4752 105.423 63.7275 105.944 63.1056C106.61 62.3386 107.459 61.7945 108.49 61.4734C109.519 61.1648 110.692 61.1179 112.009 61.3327C113.326 61.5475 114.423 61.9647 115.301 62.5843C116.176 63.2164 116.801 64.0009 117.177 64.9377C117.562 65.8891 117.659 66.9543 117.467 68.1333C117.274 69.3124 116.845 70.2854 116.179 71.0524C115.524 71.834 114.682 72.3791 113.653 72.6877C112.622 73.0089 111.448 73.062 110.131 72.8472C108.814 72.6324 107.717 72.2089 106.842 71.5768C105.964 70.9572 105.333 70.1717 104.947 69.2203C104.642 68.458 104.524 67.6155 104.595 66.6928C104.119 66.6585 103.735 66.7046 103.444 66.8312C103.056 66.9997 102.776 67.2566 102.603 67.6019C102.417 67.9577 102.288 68.3489 102.219 68.7753C102.143 69.2394 102.136 69.6761 102.198 70.0854C102.26 70.4947 102.378 70.8359 102.553 71.109L101.081 71.3711C100.866 71.0271 100.734 70.5742 100.684 70.0123C100.62 69.461 100.625 68.9532 100.701 68.4891ZM116.055 67.9032C116.195 67.0503 116.115 66.2775 115.816 65.5849C115.529 64.8943 115.037 64.3183 114.34 63.8569C113.655 63.3975 112.792 63.0829 111.751 62.9131C110.71 62.7433 109.785 62.7663 108.978 62.9823C108.182 63.2002 107.533 63.59 107.029 64.1517C106.538 64.7154 106.223 65.4238 106.084 66.2767C105.943 67.1422 106.016 67.9139 106.305 68.592C106.604 69.2846 107.096 69.8606 107.781 70.3199C108.478 70.7814 109.347 71.097 110.388 71.2668C111.429 71.4366 112.348 71.4125 113.143 71.1946C113.951 70.9787 114.6 70.5888 115.091 70.0251C115.593 69.476 115.914 68.7686 116.055 67.9032Z" fill="#C6C2B7"/>
<path d="M102.079 76.4265C102.323 75.8673 102.659 75.3831 103.088 74.9736C103.511 74.5759 104.024 74.3213 104.627 74.2101C105.237 74.1156 105.92 74.2334 106.677 74.5637L112.408 77.0638L111.799 78.4617L106.434 76.1217C105.549 75.7355 104.854 75.6609 104.348 75.8979C103.854 76.1401 103.455 76.6106 103.15 77.3095C103.008 77.6357 102.92 77.9789 102.888 78.3391C102.867 78.7044 102.92 79.0602 103.046 79.4065C103.179 79.7695 103.402 80.1022 103.713 80.4046C104.02 80.7186 104.43 80.9874 104.942 81.211L109.695 83.2842L109.085 84.6821L100.349 80.871L100.882 79.6479L102.248 80.1398C101.856 79.6082 101.652 79.027 101.636 78.3961C101.627 77.782 101.775 77.1254 102.079 76.4265Z" fill="#C6C2B7"/>
<path fill-rule="evenodd" clip-rule="evenodd" d="M102.426 92.1508C101.893 92.2348 101.339 92.0675 100.764 91.6489L100.469 91.4341L101.957 88.2264C102.324 87.4406 102.46 86.7141 102.363 86.047C102.27 85.3976 101.936 84.8636 101.36 84.4449C100.898 84.1085 100.425 83.9375 99.9418 83.9318C99.4615 83.9439 99.0023 84.0892 98.564 84.3676C98.1258 84.646 97.7422 85.0113 97.4132 85.4635C97.1516 85.8232 96.9427 86.2291 96.7866 86.6814C96.6408 87.141 96.5828 87.6096 96.6127 88.0871C96.632 88.3199 96.6824 88.5446 96.7641 88.7612C96.5844 88.6814 96.4068 88.6314 96.2314 88.6112C95.9081 88.5804 95.604 88.642 95.319 88.7962C95.034 88.9503 94.7831 89.1764 94.5663 89.4744C94.3271 89.8033 94.1841 90.1079 94.1373 90.3882L95.0637 91.1564C95.1469 90.934 95.2595 90.7252 95.4015 90.5299C95.6856 90.1394 96.0126 90.0787 96.3826 90.3478L100.113 93.0616C100.72 93.5026 101.31 93.7279 101.885 93.7373C102.462 93.7644 103.008 93.6192 103.522 93.3016C104.046 92.9914 104.51 92.5588 104.914 92.0038C105.512 91.1817 105.833 90.3622 105.877 89.5456C105.931 88.7364 105.745 88.0198 105.319 87.3956L103.974 87.9491C104.36 88.4976 104.532 89.0391 104.489 89.5735C104.457 90.1154 104.246 90.6536 103.857 91.188C103.446 91.7533 102.969 92.0742 102.426 92.1508ZM99.4491 90.6925L100.617 88.1239C100.88 87.5456 101.009 87.0658 101.004 86.6846C100.998 86.3033 100.831 85.9931 100.502 85.7539C100.184 85.5221 99.8319 85.4548 99.4469 85.552C99.0647 85.6668 98.7054 85.9555 98.369 86.418C98.1522 86.7161 97.9826 87.0248 97.8601 87.3444C97.7405 87.6817 97.6793 88.0143 97.6764 88.3423C97.6839 88.6777 97.7609 88.9931 97.9076 89.2884C98.0646 89.5911 98.3075 89.8621 98.6363 90.1013L99.4491 90.6925Z" fill="#C6C2B7"/>
<path d="M102.144 101.905L93.9278 93.866C93.5826 93.5283 93.2796 93.3563 93.0189 93.3502C92.7673 93.3529 92.5038 93.4951 92.2282 93.7767C92.0505 93.9584 91.9175 94.1216 91.8292 94.2663C91.7409 94.4111 91.6353 94.619 91.5124 94.8899L90.7319 93.7795C90.8106 93.572 90.9207 93.3686 91.0623 93.1693C91.1948 92.9612 91.35 92.7662 91.5277 92.5846C92.0699 92.0305 92.6242 91.7638 93.1906 91.7846C93.7481 91.8144 94.3357 92.1316 94.9534 92.736L103.211 100.815L102.144 101.905Z" fill="#C6C2B7"/>
<path d="M97.1172 103.607C96.8211 103.588 96.5409 103.687 96.2764 103.906C96.012 104.125 95.8662 104.377 95.839 104.663C95.8102 104.968 95.9051 105.252 96.1237 105.516C96.3424 105.781 96.5998 105.923 96.8958 105.942C97.1902 105.979 97.4696 105.888 97.7341 105.669C97.9985 105.45 98.1452 105.189 98.174 104.885C98.2012 104.599 98.1054 104.323 97.8868 104.059C97.6681 103.794 97.4116 103.644 97.1172 103.607Z" fill="#C6C2B7"/>
<path d="M88.449 95.6356L94.5226 102.981L95.698 102.01L89.6243 94.6638L88.449 95.6356Z" fill="#C6C2B7"/>
<path d="M90.3299 109.381L88.9189 107.071L85.958 108.88L85.2724 107.757L88.2333 105.949L85.3219 101.182C85.0768 100.781 84.7808 100.552 84.4338 100.496C84.0868 100.44 83.7343 100.521 83.3764 100.74C83.0619 100.932 82.8239 101.151 82.6623 101.399C82.5008 101.647 82.3842 101.919 82.3124 102.216L81.1911 101.404C81.3015 101.024 81.4904 100.663 81.758 100.321C82.0147 99.9852 82.3655 99.6817 82.8101 99.4101C83.2223 99.1584 83.6504 98.9937 84.0944 98.9161C84.545 98.8493 84.9749 98.907 85.3839 99.089C85.7887 99.2885 86.1555 99.6453 86.4843 100.159L89.5348 105.154L91.1617 104.16L91.8473 105.283L90.2204 106.276L91.4128 108.229L90.3299 109.381Z" fill="#C6C2B7"/>
<path d="M75.7258 101.388L75.6225 113.388L77.1486 112.79L77.0243 106.367L76.9737 104.36L78.1436 105.723L82.6321 110.638L84.2469 110.004L78.7791 104.368L77.0631 102.604L77.0718 101.27C77.0691 100.602 77.1666 100.12 77.3645 99.8239C77.5623 99.5278 77.815 99.3194 78.1226 99.1987C78.3828 99.0966 78.6699 99.0453 78.9838 99.045C79.2812 99.0376 79.59 99.0939 79.9102 99.2139L79.8131 97.8185C79.4786 97.7314 79.1248 97.6996 78.7517 97.7231C78.3622 97.7394 77.9664 97.8265 77.5641 97.9844C77.1382 98.1515 76.7957 98.3746 76.5367 98.6538C76.2611 98.9258 76.0605 99.2843 75.9349 99.7296C75.7928 100.168 75.7231 100.721 75.7258 101.388Z" fill="#C6C2B7"/>
<path d="M67.9687 106.33L67.8583 115.861L66.524 115.846L66.4459 114.358C66.096 114.938 65.6463 115.359 65.0968 115.619C64.5345 115.88 63.9611 116.007 63.3766 116C62.7031 115.992 62.0694 115.832 61.4757 115.52C60.8819 115.208 60.4299 114.733 60.1196 114.094C59.9112 114.523 59.6212 114.87 59.2496 115.132C58.8779 115.407 58.4752 115.606 58.0417 115.728C57.5953 115.863 57.1751 115.928 56.7811 115.923C56.1712 115.916 55.5944 115.783 55.0509 115.522C54.4947 115.261 54.0418 114.862 53.6921 114.324C53.3425 113.786 53.1725 113.098 53.1823 112.259L53.2529 106.16L54.7779 106.177L54.709 112.125C54.699 112.989 54.9078 113.614 55.3354 114C55.7631 114.386 56.2946 114.583 56.93 114.591C57.4256 114.596 57.8909 114.481 58.3257 114.245C58.7606 114.008 59.1142 113.656 59.3865 113.189C59.6461 112.722 59.7799 112.145 59.7878 111.459L59.8483 106.236L61.3733 106.254L61.3044 112.201C61.2944 113.065 61.5032 113.69 61.9309 114.077C62.3585 114.463 62.8901 114.66 63.5255 114.667C63.9448 114.672 64.3782 114.562 64.8256 114.339C65.2602 114.128 65.6264 113.783 65.9243 113.303C66.2222 112.824 66.3757 112.19 66.3848 111.402L66.4438 106.312L67.9687 106.33Z" fill="#C6C2B7"/>
<path fill-rule="evenodd" clip-rule="evenodd" d="M43.618 111.801C43.3551 111.33 43.3206 110.752 43.5146 110.067L43.6141 109.716L47.1385 110.004C48.0028 110.077 48.7313 109.953 49.3241 109.633C49.9012 109.321 50.2868 108.822 50.4807 108.137C50.6366 107.587 50.6337 107.084 50.472 106.629C50.2947 106.183 49.9997 105.802 49.587 105.487C49.1742 105.172 48.6989 104.938 48.1609 104.786C47.7329 104.664 47.2797 104.609 46.8015 104.619C46.3197 104.641 45.8599 104.748 45.4222 104.941C45.2104 105.04 45.017 105.165 44.842 105.316C44.8548 105.12 44.8403 104.936 44.7986 104.765C44.7158 104.451 44.5529 104.186 44.3097 103.972C44.0666 103.758 43.7677 103.601 43.4131 103.5C43.0218 103.39 42.6866 103.361 42.4074 103.414L42.0067 104.548C42.2442 104.55 42.479 104.583 42.7114 104.649C43.176 104.781 43.346 105.066 43.2213 105.507L41.9641 109.945C41.7598 110.667 41.7525 111.299 41.9423 111.841C42.1163 112.392 42.4412 112.854 42.9169 113.227C43.3891 113.612 43.9554 113.897 44.6157 114.084C45.5939 114.361 46.4738 114.38 47.2553 114.139C48.0334 113.91 48.6416 113.488 49.0801 112.872L48.0957 111.801C47.7147 112.353 47.266 112.702 46.7496 112.846C46.2297 113.003 45.6519 112.991 45.016 112.811C44.3435 112.62 43.8775 112.284 43.618 111.801ZM43.9576 108.503L46.7715 108.711C47.4053 108.759 47.9001 108.714 48.2559 108.577C48.6118 108.44 48.8451 108.176 48.9559 107.785C49.0633 107.406 49.0049 107.052 48.7807 106.725C48.5408 106.406 48.1457 106.168 47.5954 106.012C47.2408 105.912 46.8924 105.86 46.5503 105.855C46.1924 105.859 45.8591 105.917 45.5504 106.028C45.2382 106.151 44.9689 106.332 44.7425 106.572C44.5127 106.823 44.3423 107.145 44.2315 107.536L43.9576 108.503Z" fill="#C6C2B7"/>
<path d="M34.1703 112.948L35.3623 110.517L32.2473 108.989L32.8265 107.808L35.9415 109.336L38.4011 104.321C38.6081 103.899 38.6422 103.527 38.5033 103.204C38.3644 102.881 38.1067 102.627 37.7302 102.442C37.3993 102.28 37.086 102.197 36.7905 102.194C36.4949 102.19 36.2025 102.238 35.9134 102.337L35.9966 100.955C36.3766 100.844 36.7827 100.81 37.215 100.852C37.6359 100.889 38.0802 101.022 38.548 101.251C38.9816 101.464 39.3503 101.737 39.6541 102.07C39.9523 102.414 40.1344 102.808 40.2003 103.25C40.2492 103.699 40.145 104.2 39.8878 104.753L37.3107 110.008L39.0223 110.847L38.4431 112.028L36.7315 111.189L35.7242 113.243L34.1703 112.948Z" fill="#C6C2B7"/>
<path d="M27.4427 105.98L25.8663 108.181L27.3503 108.728L28.6825 106.868L30.2322 107.978L30.9982 106.909L29.4484 105.799L32.8564 101.041C33.2013 100.538 33.3866 100.061 33.4124 99.6104C33.4203 99.1628 33.3057 98.7445 33.0683 98.3557C32.8236 97.9771 32.5049 97.6472 32.1123 97.366C31.6887 97.0626 31.2724 96.8582 30.8633 96.7527C30.4439 96.6399 30.0376 96.6068 29.6446 96.6536L29.3347 98.0027C29.6362 97.9529 29.9324 97.9541 30.2234 98.0061C30.5144 98.0582 30.8096 98.1916 31.1093 98.4062C31.4502 98.6504 31.6626 98.9432 31.7463 99.2846C31.8301 99.626 31.735 99.9878 31.4612 100.37L28.2086 104.911L25.3881 102.891L24.6221 103.96L27.4427 105.98Z" fill="#C6C2B7"/>
<path fill-rule="evenodd" clip-rule="evenodd" d="M26.1824 92.291C26.8016 92.9473 27.2121 93.6695 27.414 94.4575C27.6071 95.2363 27.5708 96.0219 27.305 96.8143C27.03 97.6154 26.5181 98.3692 25.7693 99.0757C25.0206 99.7821 24.243 100.245 23.4365 100.464C22.6207 100.692 21.8341 100.692 21.0765 100.463C20.319 100.234 19.6394 99.801 19.0376 99.1631C18.4271 98.5161 18.0468 97.8352 17.8968 97.1206C17.738 96.3968 17.7856 95.6879 18.0395 94.9941C18.2842 94.3089 18.7023 93.6873 19.2939 93.1291C19.4511 92.9808 19.5987 92.8503 19.7369 92.7374C19.875 92.6246 20.0036 92.5294 20.1227 92.452L25.0573 97.6821C25.4418 97.2634 25.7232 96.8302 25.9016 96.3824C26.1247 95.8225 26.1855 95.2759 26.0841 94.7425C25.9648 94.2086 25.6827 93.7059 25.2379 93.2345C24.7583 92.7261 24.2731 92.4063 23.7824 92.2752C23.2831 92.1348 22.7754 92.1245 22.2595 92.2444L21.9483 90.8868C22.4283 90.7659 22.9147 90.7351 23.4074 90.7944C23.8915 90.8444 24.3726 90.9932 24.8509 91.2409C25.3112 91.488 25.755 91.8381 26.1824 92.291ZM20.1342 94.4364L24.038 98.574C23.7206 98.7922 23.4032 98.9559 23.0861 99.0651C22.5141 99.2552 21.9739 99.2845 21.4653 99.1528C20.9387 99.0206 20.4617 98.7281 20.0343 98.2751C19.4762 97.6835 19.2073 97.0374 19.2276 96.3367C19.2386 95.6668 19.5408 95.0333 20.1342 94.4364Z" fill="#C6C2B7"/>
<path d="M13.8743 92.8612L21.8402 87.627L21.0027 86.3525L16.7011 89.1789C16.1063 89.5697 15.5445 89.7792 15.0156 89.8074C14.476 89.8426 14.0025 89.7584 13.595 89.5547C13.1805 89.3405 12.865 89.0687 12.6487 88.7395C12.4812 88.4845 12.3627 88.2811 12.2932 88.129C12.2237 87.977 12.1719 87.8286 12.1376 87.6839L10.828 88.225C10.841 88.3837 10.8928 88.555 10.9832 88.7389C11.0666 88.9122 11.1537 89.0679 11.2444 89.2059C11.6492 89.822 12.1168 90.2675 12.6472 90.5424C13.1707 90.8067 13.75 90.8899 14.3851 90.7919L13.1938 91.8256L13.8743 92.8612Z" fill="#C6C2B7"/>
<path d="M17.0481 79.0014C17.4127 79.8546 17.5687 80.7208 17.5161 81.6002C17.4584 82.4679 17.179 83.2369 16.6777 83.9072L15.3093 83.0823C15.737 82.5954 15.9979 82.0417 16.092 81.421C16.181 80.7886 16.0758 80.1219 15.7761 79.4207C15.5114 78.8013 15.1873 78.3663 14.8037 78.1156C14.4085 77.8699 14.018 77.8294 13.6324 77.9942C13.3869 78.0991 13.1999 78.2758 13.0711 78.5243C12.9257 78.7662 12.9011 79.1291 12.9974 79.6131L13.4582 81.9039C13.6475 82.832 13.6175 83.5703 13.3683 84.1191C13.1141 84.6562 12.6832 85.0546 12.0755 85.3143C11.5964 85.5191 11.1007 85.572 10.5885 85.473C10.0713 85.3623 9.58845 85.1057 9.13996 84.7031C8.67479 84.2938 8.29487 83.7444 8.0002 83.0549C7.63062 82.1901 7.48792 81.3873 7.57211 80.6464C7.65629 79.9056 7.94565 79.2567 8.44016 78.6999L9.71339 79.5447C9.2841 79.9631 9.04749 80.4443 9.00355 80.9883C8.94792 81.5373 9.0225 82.0513 9.22727 82.5304C9.40707 82.9511 9.62032 83.2885 9.86704 83.5424C10.1088 83.7846 10.3698 83.9425 10.65 84.0162C10.9136 84.0833 11.174 84.0618 11.4311 83.9519C11.6882 83.8421 11.8903 83.652 12.0374 83.3818C12.1729 83.1167 12.1849 82.7245 12.0736 82.2054L11.593 79.8194C11.407 78.9315 11.431 78.244 11.6651 77.757C11.8993 77.2699 12.2851 76.9115 12.8227 76.6818C13.3719 76.447 13.9193 76.3859 14.4649 76.4982C14.9988 76.6156 15.4891 76.8897 15.9359 77.3207C16.3827 77.7517 16.7534 78.312 17.0481 79.0014Z" fill="#C6C2B7"/>
<path d="M12.401 72.2364C12.2379 72.5158 12.2032 72.8337 12.2969 73.1901C12.3906 73.5466 12.5771 73.8064 12.8565 73.9694C13.1359 74.1325 13.4539 74.1672 13.8103 74.0735C14.1667 73.9798 14.4265 73.7933 14.5896 73.5139C14.7527 73.2345 14.7874 72.9166 14.6937 72.5601C14.6 72.2037 14.4134 71.9439 14.134 71.7808C13.8546 71.6177 13.5367 71.583 13.1803 71.6767C12.8238 71.7704 12.5641 71.957 12.401 72.2364Z" fill="#C6C2B7"/>
<path fill-rule="evenodd" clip-rule="evenodd" d="M65.792 5.03462C65.1486 4.57394 64.378 4.29845 63.4802 4.20815C62.595 4.11912 61.785 4.23562 61.0501 4.55766C60.3152 4.8797 59.7142 5.39404 59.2472 6.10067C58.7814 6.79465 58.497 7.65376 58.394 8.67801C58.291 9.70225 58.3979 10.6071 58.7149 11.3926C59.0331 12.1654 59.5202 12.7828 60.1763 13.2448C60.8323 13.7067 61.6029 13.9822 62.4881 14.0713C63.3859 14.1616 64.1959 14.0451 64.9182 13.7217C65.6531 13.3997 66.2534 12.8917 66.7192 12.1977C67.1862 11.4911 67.4712 10.6256 67.5743 9.6014C67.6773 8.57715 67.5697 7.67861 67.2515 6.90577C66.9345 6.12028 66.448 5.49657 65.792 5.03462ZM61.6545 5.78718C62.1389 5.54213 62.7036 5.45204 63.3485 5.51691C63.9934 5.58177 64.5288 5.78252 64.9548 6.11914C65.3808 6.45576 65.6865 6.90803 65.8721 7.47593C66.0716 8.03246 66.1332 8.69007 66.0569 9.44877C65.9818 10.1948 65.7905 10.827 65.4829 11.3453C65.188 11.8649 64.7983 12.2472 64.3138 12.4922C63.8293 12.7373 63.2646 12.8274 62.6197 12.7625C61.9748 12.6976 61.4394 12.4969 61.0134 12.1603C60.5875 11.8236 60.2754 11.3707 60.0772 10.8016C59.8916 10.2337 59.8363 9.57669 59.9114 8.83063C59.9877 8.07193 60.1727 7.43912 60.4664 6.9322C60.774 6.4139 61.17 6.03223 61.6545 5.78718Z" fill="#C6C2B7"/>
<path fill-rule="evenodd" clip-rule="evenodd" d="M72.2128 15.8601C71.3556 15.5783 70.6505 15.1392 70.0974 14.5426C69.5564 13.9501 69.2139 13.2422 69.0698 12.4189C68.9296 11.5836 69.0203 10.6769 69.3418 9.69898C69.6632 8.72104 70.1262 7.94346 70.7306 7.36624C71.3391 6.77695 72.0308 6.40232 72.8058 6.24236C73.5807 6.08239 74.3848 6.13933 75.2178 6.41317C76.0629 6.69097 76.7218 7.10821 77.1943 7.66487C77.6789 8.2255 77.975 8.87131 78.0825 9.60231C78.194 10.3212 78.1228 11.067 77.8688 11.8397C77.8013 12.045 77.7338 12.2301 77.6661 12.3952C77.5985 12.5602 77.5308 12.7052 77.463 12.8301L70.632 10.5846C70.4936 11.136 70.4527 11.651 70.5093 12.1296C70.5802 12.7281 70.7872 13.2376 71.1306 13.6582C71.49 14.0707 71.9776 14.3781 72.5933 14.5805C73.2573 14.7988 73.8363 14.8486 74.3301 14.73C74.836 14.6154 75.2872 14.3824 75.6836 14.0311L76.6042 15.0762C76.2399 15.4113 75.827 15.6702 75.3656 15.853C74.9163 16.0397 74.4224 16.1382 73.8839 16.1485C73.3614 16.1507 72.8044 16.0545 72.2128 15.8601ZM71.1029 9.3147L76.507 11.0911C76.744 10.2835 76.7077 9.58257 76.398 8.9884C76.082 8.36276 75.5376 7.92295 74.7649 7.66895C74.1733 7.47449 73.6145 7.44466 73.0886 7.57948C72.5788 7.70619 72.1178 7.98943 71.7056 8.42921C71.4788 8.67638 71.2779 8.97155 71.1029 9.3147Z" fill="#C6C2B7"/>
<path d="M79.1249 17.7471C79.6084 18.4836 80.2513 19.0848 81.0535 19.5508C81.7019 19.9274 82.334 20.1549 82.9498 20.2333C83.5656 20.3118 84.1226 20.2385 84.6207 20.0134C85.1252 19.7774 85.5275 19.4011 85.8275 18.8846C86.1212 18.3791 86.2162 17.8612 86.1128 17.3308C86.0094 16.8004 85.6177 16.2348 84.9378 15.6341L83.1262 14.0087C82.7267 13.6591 82.502 13.3375 82.4521 13.0439C82.4085 12.7394 82.4569 12.4662 82.5974 12.2244C82.7378 11.9827 82.9337 11.8099 83.1851 11.706C83.4538 11.5976 83.7575 11.5682 84.0961 11.6179C84.4456 11.674 84.8182 11.8169 85.2138 12.0467C85.6644 12.3084 86.0315 12.6759 86.315 13.1493C86.6049 13.6116 86.7029 14.1388 86.6088 14.7309L88.1346 14.6471C88.1981 13.9051 88.0423 13.2119 87.6669 12.5677C87.2916 11.9235 86.6973 11.3652 85.8841 10.8928C85.2357 10.5162 84.6027 10.3028 83.9851 10.2528C83.3849 10.1981 82.8444 10.2809 82.3636 10.5014C81.8938 10.7282 81.5281 11.0669 81.2664 11.5175C80.9345 12.0889 80.8271 12.6659 80.9444 13.2484C81.0726 13.8373 81.49 14.4472 82.1965 15.078L83.9352 16.6391C84.3017 16.9696 84.499 17.2752 84.527 17.556C84.5723 17.8322 84.5279 18.0857 84.3939 18.3164C84.1832 18.6791 83.8461 18.8801 83.3823 18.9193C82.925 18.9476 82.4051 18.7926 81.8226 18.4543C81.1633 18.0713 80.6803 17.5997 80.3737 17.0395C80.0781 16.4857 79.9563 15.8858 80.0081 15.2399L78.418 15.3965C78.4168 16.2335 78.6525 17.0171 79.1249 17.7471Z" fill="#C6C2B7"/>
<path d="M89.6533 24.9269L96.7503 18.5642L97.6411 19.5578L96.5969 20.6187C96.9408 20.5395 97.2708 20.5179 97.5868 20.5539C98.0524 20.5973 98.4857 20.7379 98.8867 20.9758C99.2962 21.2231 99.6622 21.5266 99.9845 21.8862C100.443 22.3972 100.759 22.9499 100.934 23.5444C101.118 24.1305 101.121 24.7246 100.944 25.327C100.776 25.9388 100.384 26.5204 99.7691 27.0718L95.227 31.1439L94.2089 30.0084L98.3536 26.2926C99.139 25.5885 99.5304 24.9303 99.5278 24.3182C99.5432 23.7071 99.3303 23.1554 98.8891 22.6634C98.5837 22.3227 98.1979 22.0542 97.7316 21.8577C97.2653 21.6613 96.7506 21.6107 96.1874 21.706C95.6327 21.8107 95.0526 22.1346 94.4469 22.6775L90.6713 26.0624L89.6533 24.9269Z" fill="#C6C2B7"/>
<path fill-rule="evenodd" clip-rule="evenodd" d="M107.989 34.1517C108 33.3605 107.786 32.5706 107.347 31.7822C106.914 31.0048 106.356 30.4065 105.672 29.9873C104.988 29.568 104.222 29.3686 103.376 29.3889C102.54 29.4031 101.672 29.6604 100.773 30.161C99.8733 30.6615 99.1917 31.2662 98.7281 31.9751C98.2755 32.6778 98.0471 33.4303 98.0427 34.2326C98.0383 35.035 98.2524 35.8249 98.685 36.6022C99.1237 37.3907 99.6821 37.989 100.36 38.3971C101.044 38.8163 101.804 39.0189 102.64 39.0047C103.487 38.9844 104.36 38.7239 105.259 38.2234C106.159 37.7229 106.835 37.1212 107.287 36.4186C107.751 35.7097 107.985 34.9541 107.989 34.1517ZM105.008 31.1857C105.486 31.4434 105.883 31.8554 106.198 32.4217C106.513 32.9881 106.654 33.5423 106.621 34.0842C106.588 34.6261 106.391 35.1354 106.031 35.6121C105.689 36.0938 105.184 36.52 104.518 36.8908C103.862 37.2554 103.234 37.4595 102.633 37.5031C102.038 37.5578 101.502 37.4563 101.024 37.1987C100.546 36.941 100.15 36.529 99.8344 35.9626C99.5192 35.3963 99.3781 34.8421 99.411 34.3002C99.444 33.7583 99.6375 33.2434 99.9914 32.7556C100.351 32.2789 100.859 31.8582 101.514 31.4936C102.181 31.1228 102.806 30.9132 103.39 30.8646C103.991 30.821 104.53 30.928 105.008 31.1857Z" fill="#C6C2B7"/>
<path d="M114.125 40.4171L111.556 41.2721L112.652 44.564L111.404 44.9795L110.308 41.6876L105.009 43.4518C104.563 43.6003 104.273 43.8373 104.14 44.1628C104.008 44.4883 104.007 44.85 104.14 45.2479C104.256 45.5976 104.417 45.879 104.622 46.092C104.827 46.3051 105.066 46.48 105.339 46.6168L104.296 47.5266C103.95 47.3336 103.641 47.0682 103.368 46.7305C103.099 46.4049 102.882 45.9949 102.717 45.5005C102.565 45.0423 102.5 44.5881 102.525 44.138C102.561 43.6839 102.714 43.2781 102.983 42.9205C103.269 42.571 103.699 42.2938 104.274 42.0891L109.827 40.2406L109.224 38.4318L110.472 38.0164L111.075 39.8251L113.245 39.1026L114.125 40.4171Z" fill="#C6C2B7"/>
<path d="M106.322 50.9007C106.504 50.6332 106.56 50.3184 106.491 49.9563C106.422 49.5943 106.254 49.3224 105.986 49.1405C105.719 48.9587 105.404 48.9023 105.042 48.9713C104.68 49.0404 104.408 49.2087 104.226 49.4763C104.044 49.7438 103.988 50.0586 104.057 50.4207C104.126 50.7827 104.294 51.0546 104.562 51.2365C104.829 51.4183 105.144 51.4747 105.506 51.4057C105.868 51.3366 106.14 51.1683 106.322 50.9007Z" fill="#C6C2B7"/>
</svg>
