<svg width="119" height="116" fill="none" xmlns="http://www.w3.org/2000/svg"><path fill-rule="evenodd" clip-rule="evenodd" d="M62.969.003c.932.028 1.723.252 2.373.672a3.863 3.863 0 0 1 1.487 1.746c.343.73.499 1.583.468 2.555l-.033 1.06-7.44-.227c-.01 1.213.271 2.15.846 2.807.588.645 1.423.983 2.504 1.016.69.021 1.3-.02 1.83-.124A11.12 11.12 0 0 0 66.684 9l-.048 1.54a8.062 8.062 0 0 1-1.658.469c-.545.103-1.188.144-1.932.121-1.027-.031-1.933-.266-2.717-.703-.771-.437-1.367-1.069-1.787-1.895-.407-.84-.592-1.852-.554-3.038.036-1.173.264-2.173.682-3 .432-.827 1.013-1.457 1.743-1.888.744-.43 1.596-.631 2.556-.602Zm-.066 1.438c-.851-.026-1.535.227-2.053.758-.503.518-.817 1.256-.941 2.212l5.534.169c.019-.613-.059-1.15-.234-1.608a2.263 2.263 0 0 0-.838-1.086c-.37-.278-.86-.426-1.468-.445Z" fill="#C6C2B7"/><path d="M46.882 5.902c.134.612.405 1.032.814 1.26.42.21.96.246 1.62.106a5.383 5.383 0 0 0 1.741-.675c.497-.323.992-.714 1.487-1.173L51.566.923l1.744-.37 2.281 10.48-1.745.37L52.83 6.73a9.963 9.963 0 0 1-1.569 1.272c-.523.33-1.188.579-1.994.75-1.084.229-1.991.128-2.721-.304-.717-.435-1.178-1.121-1.382-2.06l-.855-3.93 1.745-.369.83 3.813Z" fill="#C6C2B7"/><path fill-rule="evenodd" clip-rule="evenodd" d="M42.36 8.77c.401.8.649 1.564.743 2.292.1.71.058 1.377-.126 2.002a4.153 4.153 0 0 1-.941 1.687c-.45.487-1.02.9-1.71 1.236a5.358 5.358 0 0 1-1.944.547 4.548 4.548 0 0 1-1.912-.293 5.339 5.339 0 0 1-1.728-1.098c-.53-.515-.996-1.173-1.398-1.973-.534-1.063-.802-2.048-.805-2.954-.008-.919.231-1.735.718-2.448.48-.726 1.187-1.316 2.12-1.772.885-.431 1.76-.613 2.623-.544.871.051 1.68.356 2.428.913.753.54 1.397 1.34 1.931 2.404Zm-7.362 3.593c.378.752.805 1.362 1.28 1.829.482.449 1.01.72 1.584.811.575.092 1.189-.022 1.843-.342.654-.319 1.119-.732 1.393-1.237.274-.506.37-1.081.288-1.725-.076-.662-.303-1.37-.68-2.122-.385-.765-.815-1.366-1.29-1.803-.477-.437-.999-.695-1.567-.775-.562-.098-1.176.016-1.842.341-.994.485-1.553 1.16-1.677 2.024-.125.864.098 1.863.668 2.998Z" fill="#C6C2B7"/><path d="M27.203 17.842 20.93 16.14l1.568-1.268 4.762 1.371-.45-4.86 1.551-1.256.471 6.397 6.583 1.762-1.568 1.268-5.043-1.456.434 5.186-1.553 1.256-.483-6.697Z" fill="#C6C2B7"/><path fill-rule="evenodd" clip-rule="evenodd" d="M19.527 25.758c.768.474 1.385.996 1.852 1.568.462.552.781 1.143.957 1.77.183.616.215 1.257.096 1.923-.124.647-.39 1.293-.8 1.937a5.256 5.256 0 0 1-1.363 1.47c-.541.374-1.136.62-1.785.738a5.405 5.405 0 0 1-2.056-.041c-.725-.165-1.471-.484-2.239-.958-1.02-.63-1.772-1.33-2.256-2.1-.495-.778-.725-1.596-.69-2.455.023-.866.311-1.735.864-2.605.523-.825 1.172-1.431 1.945-1.82.768-.406 1.619-.565 2.552-.476.928.07 1.903.42 2.923 1.049Zm-4.359 6.865c.722.445 1.41.744 2.064.896.649.133 1.242.09 1.78-.128.537-.22 1-.633 1.387-1.244.388-.61.564-1.201.528-1.774-.035-.572-.26-1.111-.671-1.617-.417-.525-.986-1.01-1.709-1.456-.733-.453-1.419-.742-2.056-.868-.638-.126-1.22-.077-1.746.15-.53.206-.993.62-1.388 1.242-.588.927-.705 1.79-.352 2.59.353.8 1.074 1.537 2.163 2.209Z" fill="#C6C2B7"/><path d="m9.82 34.549-1.184 3.299 8.834 3.083-.59 1.64-8.832-3.083-1.171 3.261-1.415-.494 2.944-8.2 1.415.494ZM15.376 47.65l.261-2.144-8.173 5.558-6.238-6.982-.247 2.025 6.206 7.079-6.967-.825L0 54.148l14.378 1.702.218-1.787-7.29-.863 8.07-5.55ZM118.454 63.515l-4.458-.752-.995 5.736 4.458.752-.301 1.734-10.715-1.806.3-1.735 4.778.806.995-5.736-4.778-.806.301-1.734 10.715 1.806-.3 1.735Z" fill="#C6C2B7"/><path fill-rule="evenodd" clip-rule="evenodd" d="M107.127 81.652c-.83-.36-1.516-.79-2.062-1.29a4.783 4.783 0 0 1-1.206-1.616 4.133 4.133 0 0 1-.374-1.889c.028-.658.198-1.335.508-2.03a5.213 5.213 0 0 1 1.136-1.648 4.506 4.506 0 0 1 1.659-.984 5.4 5.4 0 0 1 2.039-.25c.742.06 1.528.27 2.356.63 1.101.479 1.948 1.065 2.539 1.759.604.7.951 1.477 1.041 2.332.103.86-.055 1.76-.475 2.7-.398.89-.951 1.582-1.66 2.076-.701.511-1.52.789-2.456.834-.929.062-1.944-.146-3.045-.624Zm3.312-7.411c-.779-.34-1.503-.537-2.172-.595-.663-.04-1.243.087-1.744.38-.5.292-.897.768-1.191 1.426-.294.66-.383 1.27-.264 1.83.119.562.419 1.064.901 1.507.488.46 1.122.859 1.902 1.198.792.344 1.512.533 2.162.567.649.035 1.218-.097 1.706-.395.495-.28.892-.756 1.191-1.427.448-1 .438-1.871-.028-2.613-.467-.742-1.288-1.368-2.463-1.878Z" fill="#C6C2B7"/><path d="M98.058 84.826c.57-.76 1.238-1.327 2.003-1.698.758-.36 1.597-.47 2.517-.33.912.15 1.886.602 2.918 1.355 1.077.784 1.82 1.599 2.229 2.444.41.845.547 1.682.413 2.513-.143.84-.503 1.647-1.082 2.419-.329.44-.696.828-1.099 1.164-.392.344-.75.597-1.074.76l-.865-1.302c.291-.186.609-.42.953-.699.343-.28.628-.57.852-.87.435-.58.667-1.147.698-1.705.032-.557-.13-1.105-.483-1.644-.352-.539-.893-1.074-1.622-1.604-.696-.507-1.357-.848-1.983-1.022-.626-.174-1.201-.17-1.724.012-.523.183-.99.547-1.4 1.094-.353.472-.613.92-.78 1.346a7.432 7.432 0 0 0-.389 1.259l-1.272-.927c.065-.4.191-.806.38-1.215.17-.406.44-.856.81-1.35ZM97.08 92.65c-.08-.09-.19-.225-.33-.405-.143-.161-.293-.341-.452-.541-.15-.19-.295-.374-.435-.554-.132-.17-.237-.31-.316-.419l1.59 10.541-1.653 1.418-7.138-8.084 1.254-1.077 4.768 5.4.649.795c.22.27.383.475.489.615l-1.607-10.5 1.667-1.43 7.139 8.083-1.27 1.09-4.355-4.932ZM84.254 107.427l3.12-1.668-4.465-8.122 1.552-.83 4.465 8.123 3.085-1.648.715 1.3-7.757 4.146-.715-1.301ZM54.208 112.459l1.29-10.945c.096-.821.334-1.451.712-1.891.379-.44.814-.732 1.308-.877a3.584 3.584 0 0 1 1.425-.139c.416.048.791.158 1.125.33.335.16.606.345.813.556l-.52 1.471a2.449 2.449 0 0 0-1.58-.805c-.43-.049-.796.05-1.097.297-.315.246-.513.713-.594 1.402l-1.27 10.785-1.612-.184Z" fill="#C6C2B7"/><path fill-rule="evenodd" clip-rule="evenodd" d="m60.179 103.071-1.72.118L64.567 116l1.922-.132 4.271-13.523-1.7.117-1.158 3.747-6.05.415-1.673-3.553Zm2.366 5.009 4.876-.334-1.97 6.65-2.906-6.316Z" fill="#C6C2B7"/><path d="m78.714 4.223-3.45-.825-2.209 8.978-1.715-.41 2.21-8.978-3.41-.816.354-1.438 8.574 2.051-.354 1.438ZM79.802 12.075c.3.123.516.305.648.547.15.234.225.51.224.827.003.304-.07.635-.22.992a3.67 3.67 0 0 1-.73 1.11 3.507 3.507 0 0 1-1.113.822 3.92 3.92 0 0 1-1.51.357l-.485-1.042a3.1 3.1 0 0 0 1.075-.102c.345-.09.65-.225.916-.405.266-.18.478-.39.637-.628l-.06-.067a.72.72 0 0 1-.226.015 1.246 1.246 0 0 1-.353-.1 1.069 1.069 0 0 1-.414-.32 1.317 1.317 0 0 1-.238-.531c-.04-.219-.003-.463.11-.734a1.26 1.26 0 0 1 .426-.54 1.42 1.42 0 0 1 .624-.287c.234-.034.464-.006.689.086ZM98.103 15.086l-2.847-2.09-5.595 7.412-1.415-1.039 5.594-7.41-2.814-2.066.896-1.188 7.077 5.194-.896 1.187Z" fill="#C6C2B7"/><path fill-rule="evenodd" clip-rule="evenodd" d="M103.74 26.809c-.686.584-1.374 1.012-2.065 1.283-.672.273-1.338.4-1.998.381a4.277 4.277 0 0 1-1.892-.476c-.59-.307-1.138-.748-1.642-1.323a5.213 5.213 0 0 1-1.023-1.718 4.372 4.372 0 0 1-.191-1.9 5.206 5.206 0 0 1 .645-1.924c.373-.634.902-1.244 1.588-1.828.91-.776 1.81-1.278 2.7-1.507.899-.238 1.76-.214 2.583.072.832.277 1.589.804 2.27 1.58.645.737 1.043 1.526 1.191 2.368.168.844.072 1.693-.289 2.546-.341.855-.967 1.67-1.877 2.446Zm-5.371-6.128c-.645.55-1.137 1.11-1.476 1.68-.32.573-.454 1.145-.4 1.716.054.57.32 1.128.797 1.673.477.545.998.885 1.564 1.02.565.135 1.153.082 1.765-.157.632-.238 1.27-.632 1.914-1.181.655-.558 1.137-1.119 1.447-1.683.31-.563.433-1.127.369-1.689-.045-.56-.31-1.118-.796-1.673-.725-.827-1.527-1.192-2.407-1.095-.88.098-1.805.56-2.777 1.389Z" fill="#C6C2B7"/><path d="m112.607 34.435-1.68-3.083-8.255 4.373-.834-1.533 8.254-4.373-1.661-3.047 1.322-.7 4.176 7.662-1.322.7ZM110.772 44.922a9.792 9.792 0 0 1-.522.072c-.213.037-.447.072-.703.103-.241.03-.476.057-.705.084a15.02 15.02 0 0 1-.527.052l9.99 4.069.385 2.126-10.7 1.887-.293-1.614 7.147-1.26c.349-.049.691-.095 1.025-.14.349-.049.611-.081.786-.099l-9.962-4.032-.39-2.146 10.702-1.888.296 1.634-6.529 1.152ZM77.13 102.316c.312.145.652.152 1.021.022.37-.13.627-.349.775-.656.147-.307.154-.642.022-1.006s-.354-.619-.665-.764c-.311-.145-.652-.152-1.02-.022-.37.131-.628.349-.775.656-.147.307-.155.642-.022 1.006.132.364.354.619.665.764Z" fill="#C6C2B7"/><path fill-rule="evenodd" clip-rule="evenodd" d="m39.282 97.721-1.592-.65-.326 14.153 1.78.726 9.939-10.226-1.575-.643-2.731 2.845-5.603-2.288.108-3.917Zm-.147 5.525 4.516 1.843-4.77 5.087.254-6.93Z" fill="#C6C2B7"/><path d="m34.295 97.515-6.641 10.126 1.362.869 6.674-10.177c.5-.761.706-1.431.619-2.01-.099-.587-.494-1.101-1.187-1.543a3.856 3.856 0 0 0-.708-.356 2.921 2.921 0 0 0-.706-.212l-.993 1.034c.309.07.548.135.718.195.17.06.367.163.595.308.352.225.556.466.612.724.049.27-.066.617-.345 1.042Z" fill="#C6C2B7"/><path fill-rule="evenodd" clip-rule="evenodd" d="M21.188 96.068c.252.792.731 1.509 1.437 2.15.695.634 1.458 1.047 2.289 1.24.83.194 1.67.142 2.52-.155.84-.288 1.631-.829 2.374-1.622.743-.794 1.23-1.62 1.464-2.478a4.283 4.283 0 0 0-.057-2.474c-.263-.801-.741-1.518-1.437-2.151-.705-.642-1.468-1.056-2.29-1.24a4.463 4.463 0 0 0-2.505.141c-.85.298-1.645.843-2.388 1.637-.743.793-1.226 1.614-1.45 2.463-.233.858-.219 1.688.043 2.489Zm3.999 1.979c-.569-.1-1.107-.381-1.613-.842-.507-.461-.834-.967-.98-1.518-.147-.551-.118-1.123.088-1.716.186-.592.555-1.182 1.105-1.77.541-.578 1.108-.987 1.701-1.228.584-.25 1.16-.324 1.728-.224.569.1 1.106.382 1.613.843.507.46.833.967.98 1.518.147.55.122 1.127-.073 1.73-.206.592-.58 1.178-1.12 1.756-.55.587-1.113 1.001-1.687 1.24-.593.241-1.174.311-1.742.21Z" fill="#C6C2B7"/><path d="m15.52 90.11-2.33 1.671 1.316 1.035 1.968-1.411 1.193 1.617 1.132-.812-1.193-1.617 5.035-3.612c.517-.387.864-.8 1.04-1.24.159-.444.183-.898.074-1.363a3.815 3.815 0 0 0-.634-1.301c-.326-.442-.678-.784-1.056-1.024a3.432 3.432 0 0 0-1.197-.5l-.765 1.24c.32.05.62.149.896.297s.53.378.76.69c.263.357.38.718.35 1.086-.03.368-.248.696-.652.987l-4.806 3.446-2.171-2.943-1.132.812 2.172 2.943ZM10.372 81.812l-2.586 1.25L8.9 84.305l2.185-1.057.893 1.796 1.257-.608-.893-1.795 5.59-2.704c.577-.293.99-.642 1.242-1.046a2.37 2.37 0 0 0 .31-1.33 3.8 3.8 0 0 0-.398-1.389c-.244-.49-.531-.886-.862-1.187a3.413 3.413 0 0 0-1.092-.697l-.97 1.093c.308.103.585.252.831.444.247.193.456.463.629.81.197.395.248.771.155 1.128-.094.357-.365.644-.814.861l-5.336 2.58-1.625-3.267-1.257.607 1.626 3.268ZM5.454 76.099c.135-.282.146-.594.033-.936-.113-.343-.305-.582-.578-.72-.29-.145-.608-.162-.955-.05-.347.11-.588.306-.723.588-.152.273-.171.58-.059.923.113.342.314.586.604.732.272.137.582.15.93.039.347-.112.596-.304.748-.576ZM7.089 73.81l9.645-3.087.501 1.522L7.59 75.33l-.501-1.522ZM13.17 66.722c-.077-.379-.02-.71.172-.991.191-.283.479-.461.864-.537.384-.075.72-.018 1.006.17.286.189.467.473.543.852.077.38.02.71-.172.992-.191.282-.48.46-.864.536-.384.076-.72.019-1.006-.17-.286-.188-.467-.472-.544-.852Z" fill="#C6C2B7"/></svg>