<svg width="119" height="116" viewBox="0 0 119 116" fill="none" xmlns="http://www.w3.org/2000/svg">
<path fill-rule="evenodd" clip-rule="evenodd" d="M62.9686 0.00278329C63.9012 0.0311838 64.6923 0.255344 65.342 0.675265C66.0052 1.09561 66.501 1.67757 66.8295 2.42116C67.1718 3.15183 67.3277 4.00354 67.2972 4.97629L67.2641 6.03565L59.8242 5.80908C59.8133 7.02249 60.0951 7.95807 60.6697 8.61578C61.2582 9.26059 62.093 9.59947 63.1743 9.63238C63.8635 9.65338 64.4735 9.61194 65.0044 9.50806C65.5492 9.39126 66.1091 9.22159 66.6842 8.99903L66.6361 10.5381C66.0744 10.7611 65.5216 10.9177 64.9777 11.0077C64.4334 11.1112 63.7895 11.1516 63.0462 11.129C62.0191 11.0977 61.1133 10.8634 60.3288 10.426C59.5579 9.98909 58.9622 9.3574 58.5417 8.53098C58.1351 7.69164 57.9504 6.679 57.9876 5.49305C58.0243 4.32043 58.2518 3.32034 58.67 2.49279C59.1018 1.66565 59.6828 1.03645 60.4133 0.605207C61.1573 0.17437 62.0091 -0.0264335 62.9686 0.00278329ZM62.9033 1.44129C62.0519 1.41537 61.3676 1.66795 60.8504 2.19907C60.3472 2.71725 60.0332 3.45462 59.9086 4.41116L65.4429 4.5797C65.462 3.96673 65.3842 3.43085 65.2091 2.97203C65.0341 2.5132 64.7546 2.15123 64.3706 1.88613C64.0005 1.60809 63.5114 1.45981 62.9033 1.44129Z" fill="#C6C2B7"/>
<path d="M46.8824 5.90172C47.0158 6.51436 47.2869 6.93423 47.6959 7.1613C48.1153 7.37254 48.6555 7.40823 49.3164 7.26837C49.9775 7.12852 50.5577 6.90349 51.0572 6.59328C51.5538 6.27004 52.0495 5.87883 52.5442 5.41964L51.5655 0.922618L53.3105 0.553395L55.5914 11.0335L53.8464 11.4026L52.8294 6.72965C52.3167 7.23354 51.7937 7.65781 51.2601 8.00248C50.7371 8.33131 50.0723 8.58104 49.2659 8.75167C48.1819 8.98103 47.2748 8.8798 46.5446 8.44796C45.8278 8.01335 45.3672 7.32678 45.1629 6.38826L44.3075 2.45825L46.0527 2.08902L46.8824 5.90172Z" fill="#C6C2B7"/>
<path fill-rule="evenodd" clip-rule="evenodd" d="M42.3592 8.76923C42.7611 9.56972 43.009 10.3339 43.1028 11.0616C43.2028 11.7715 43.1608 12.4391 42.9769 13.0643C42.8051 13.6837 42.4914 14.246 42.0359 14.751C41.5865 15.2381 41.0163 15.6503 40.3256 15.9873C39.6834 16.3009 39.0357 16.4832 38.3824 16.5343C37.7232 16.5735 37.0856 16.4756 36.4698 16.2406C35.8539 16.0057 35.2779 15.6398 34.7418 15.1429C34.2117 14.628 33.7456 13.9704 33.3437 13.1699C32.8098 12.1065 32.5417 11.1218 32.5393 10.2155C32.5308 9.2973 32.77 8.48142 33.2565 7.76787C33.7372 7.04236 34.444 6.45189 35.3771 5.99645C36.2617 5.56466 37.1361 5.38325 38.0005 5.4522C38.8711 5.50329 39.6802 5.80753 40.4278 6.36493C41.1814 6.90445 41.8253 7.7059 42.3592 8.76923ZM34.9977 12.3625C35.3757 13.1152 35.8026 13.725 36.2784 14.1919C36.7604 14.6409 37.2884 14.9113 37.8625 15.003C38.4366 15.0947 39.0508 14.9808 39.7051 14.6614C40.3595 14.342 40.8238 13.9294 41.0979 13.4237C41.372 12.918 41.468 12.343 41.386 11.6988C41.31 11.0367 41.0831 10.3293 40.7051 9.5766C40.3212 8.81196 39.8912 8.21109 39.4153 7.774C38.9394 7.3369 38.4173 7.07851 37.8492 6.99878C37.2872 6.9012 36.6731 7.01505 36.0066 7.34038C35.0129 7.82539 34.454 8.49992 34.3295 9.36393C34.2051 10.228 34.4279 11.2275 34.9977 12.3625Z" fill="#C6C2B7"/>
<path d="M27.2025 17.8424L20.931 16.1393L22.4988 14.8707L27.2614 16.2425L26.8102 11.3819L28.3623 10.126L28.833 16.523L35.4157 18.2847L33.8478 19.5533L28.8054 18.0975L29.2386 23.2831L27.6864 24.539L27.2025 17.8424Z" fill="#C6C2B7"/>
<path fill-rule="evenodd" clip-rule="evenodd" d="M19.5267 25.7578C20.2946 26.2317 20.912 26.7543 21.3788 27.3256C21.8413 27.8785 22.1605 28.4686 22.3364 29.0962C22.5193 29.7125 22.5512 30.3534 22.4317 31.0189C22.308 31.666 22.0416 32.3116 21.6327 32.9557C21.2524 33.5547 20.7977 34.0447 20.2686 34.4258C19.7279 34.8 19.133 35.0462 18.4836 35.1643C17.8343 35.2826 17.1492 35.2687 16.4284 35.1227C15.7033 34.9582 14.9568 34.639 14.189 34.1651C13.1689 33.5355 12.417 32.8355 11.9331 32.065C11.4377 31.2874 11.2077 30.469 11.2426 29.6098C11.2663 28.7436 11.5543 27.8754 12.1066 27.0053C12.6304 26.1804 13.2786 25.5739 14.0515 25.1858C14.8199 24.7794 15.6708 24.6203 16.6037 24.7086C17.5324 24.7785 18.5068 25.1283 19.5267 25.7578ZM15.1683 32.6226C15.8903 33.0682 16.5781 33.3669 17.2315 33.5186C17.8807 33.6518 18.474 33.6092 19.0117 33.3906C19.5493 33.1719 20.0118 32.7575 20.3993 32.1472C20.7867 31.537 20.9627 30.9458 20.9273 30.3734C20.8918 29.801 20.6679 29.2618 20.2556 28.7556C19.8389 28.2311 19.2695 27.7459 18.5474 27.3003C17.8139 26.8475 17.1283 26.5581 16.4907 26.4318C15.853 26.3056 15.271 26.3554 14.7449 26.5811C14.2144 26.7884 13.7519 27.2029 13.3573 27.8244C12.7689 28.751 12.6515 29.6144 13.0049 30.4145C13.3584 31.2146 14.0795 31.9506 15.1683 32.6226Z" fill="#C6C2B7"/>
<path d="M9.82071 34.5488L8.63644 37.8479L17.4697 40.9305L16.8809 42.5706L8.0477 39.488L6.87697 42.7493L5.46213 42.2555L8.40587 34.0551L9.82071 34.5488Z" fill="#C6C2B7"/>
<path d="M15.3763 47.65L15.6375 45.5057L7.46384 51.064L1.22561 44.0819L0.979042 46.1071L7.18505 53.186L0.217569 52.3614L0 54.1483L14.378 55.8501L14.5956 54.0632L7.30588 53.2003L15.3763 47.65Z" fill="#C6C2B7"/>
<path d="M118.454 63.5147L113.996 62.7632L113.001 68.4991L117.459 69.2507L117.158 70.9853L106.443 69.1788L106.743 67.4442L111.521 68.2497L112.516 62.5137L107.738 61.7082L108.039 59.9736L118.754 61.7801L118.454 63.5147Z" fill="#C6C2B7"/>
<path fill-rule="evenodd" clip-rule="evenodd" d="M107.127 81.6518C106.297 81.2916 105.611 80.8619 105.065 80.3628C104.527 79.8812 104.125 79.3424 103.859 78.7463C103.589 78.1624 103.464 77.5326 103.485 76.8571C103.513 76.1991 103.683 75.5225 103.993 74.8271C104.282 74.1805 104.66 73.6311 105.129 73.1789C105.61 72.7321 106.162 72.4041 106.788 72.195C107.413 71.9861 108.093 71.9027 108.827 71.9451C109.569 72.005 110.355 72.2151 111.183 72.5753C112.284 73.0538 113.131 73.6399 113.722 74.3338C114.326 75.0332 114.673 75.8105 114.763 76.6656C114.866 77.5262 114.708 78.4262 114.288 79.3656C113.89 80.2562 113.337 80.9482 112.628 81.4418C111.927 81.953 111.108 82.2309 110.172 82.2758C109.243 82.3383 108.228 82.1302 107.127 81.6518ZM110.439 74.2406C109.66 73.9019 108.936 73.7037 108.267 73.6463C107.604 73.6063 107.024 73.7327 106.523 74.0253C106.023 74.318 105.626 74.7936 105.332 75.4524C105.038 76.1111 104.949 76.7212 105.068 77.2826C105.187 77.844 105.487 78.3459 105.969 78.7885C106.457 79.2485 107.091 79.6479 107.871 79.9865C108.663 80.3307 109.383 80.52 110.033 80.5544C110.682 80.5889 111.251 80.4573 111.739 80.1593C112.234 79.8789 112.631 79.4032 112.93 78.7323C113.378 77.7319 113.368 76.8608 112.902 76.1192C112.435 75.3775 111.614 74.7513 110.439 74.2406Z" fill="#C6C2B7"/>
<path d="M98.0578 84.8265C98.6282 84.0651 99.296 83.4991 100.061 83.1282C100.819 82.7682 101.658 82.6581 102.578 82.7982C103.49 82.9489 104.464 83.4005 105.496 84.153C106.573 84.9371 107.316 85.7517 107.725 86.5967C108.135 87.4417 108.272 88.2793 108.138 89.1095C107.995 89.9503 107.635 90.7568 107.056 91.5289C106.727 91.9687 106.36 92.3565 105.957 92.6928C105.565 93.0368 105.207 93.2901 104.883 93.4524L104.018 92.1508C104.309 91.9647 104.627 91.7318 104.971 91.452C105.314 91.1722 105.599 90.8822 105.823 90.582C106.258 90.0028 106.49 89.4346 106.521 88.8771C106.553 88.3196 106.391 87.7715 106.038 87.2327C105.686 86.694 105.145 86.1593 104.416 85.6286C103.72 85.1217 103.059 84.7811 102.433 84.607C101.807 84.4329 101.232 84.437 100.709 84.6194C100.186 84.8018 99.7194 85.1665 99.3097 85.7134C98.9563 86.1852 98.6958 86.6337 98.5286 87.0588C98.3534 87.4948 98.224 87.9143 98.1404 88.3176L96.8679 87.3908C96.9326 86.9903 97.0594 86.5855 97.2484 86.1761C97.4185 85.7697 97.6882 85.3197 98.0578 84.8265Z" fill="#C6C2B7"/>
<path d="M97.0801 92.6502C97.0002 92.5597 96.8898 92.4246 96.7491 92.2449C96.607 92.084 96.4567 91.9037 96.2982 91.7039C96.1486 91.5142 96.0034 91.3295 95.8628 91.1497C95.7308 90.9801 95.6257 90.8406 95.5471 90.7314L97.1366 101.272L95.4845 102.69L88.3462 94.6059L89.6005 93.5292L94.3683 98.9286C94.5889 99.1988 94.8051 99.4639 95.0168 99.7241C95.2375 99.9941 95.4004 100.199 95.5057 100.339L93.8989 89.8394L95.5662 88.4082L102.705 96.4922L101.435 97.5821L97.0801 92.6502Z" fill="#C6C2B7"/>
<path d="M84.2541 107.427L87.3745 105.759L82.9093 97.6369L84.4606 96.8078L88.9258 104.93L92.0106 103.282L92.7257 104.582L84.9694 108.728L84.2541 107.427Z" fill="#C6C2B7"/>
<path d="M54.2078 112.459L55.4971 101.514C55.5939 100.693 55.8315 100.063 56.2099 99.6229C56.5885 99.1831 57.0244 98.8907 57.5179 98.7459C58.0113 98.6011 58.4865 98.5549 58.9431 98.6071C59.3595 98.6548 59.7345 98.7649 60.068 98.9373C60.4032 99.0965 60.674 99.2819 60.8805 99.4934L60.3602 100.964C60.1925 100.77 59.9745 100.598 59.7066 100.446C59.4386 100.295 59.13 100.199 58.7807 100.159C58.351 100.11 57.9854 100.209 57.684 100.456C57.3692 100.702 57.1712 101.169 57.0902 101.858L55.8195 112.643L54.2078 112.459Z" fill="#C6C2B7"/>
<path fill-rule="evenodd" clip-rule="evenodd" d="M60.1786 103.071L58.4588 103.189L64.5672 116L66.4893 115.868L70.7604 102.345L69.0609 102.462L67.9021 106.209L61.8524 106.624L60.1786 103.071ZM62.5447 108.08L67.4209 107.746L65.4503 114.396L62.5447 108.08Z" fill="#C6C2B7"/>
<path d="M78.7139 4.22305L75.2647 3.39783L73.0551 12.3761L71.3404 11.9658L73.5499 2.98759L70.1401 2.17181L70.494 0.733731L79.0679 2.78497L78.7139 4.22305Z" fill="#C6C2B7"/>
<path d="M79.8017 12.0754C80.1016 12.1978 80.3178 12.3799 80.4504 12.6217C80.6006 12.8562 80.675 13.1319 80.6737 13.4487C80.6775 13.7534 80.6044 14.0843 80.4543 14.4414C80.2835 14.8479 80.0404 15.2176 79.7249 15.5505C79.4219 15.8885 79.0508 16.1626 78.6113 16.3728C78.1717 16.5828 77.6681 16.7018 77.1002 16.7297L76.6158 15.6878C76.9998 15.7147 77.3579 15.6806 77.6906 15.5856C78.0358 15.4956 78.3412 15.3606 78.6071 15.1806C78.873 15.0005 79.0852 14.7915 79.2439 14.5532L79.1844 14.4856C79.1189 14.5022 79.0436 14.5074 78.9582 14.5015C78.8729 14.4955 78.7554 14.4619 78.6054 14.4007C78.4555 14.3394 78.3175 14.2326 78.1913 14.0801C78.0777 13.9326 77.9981 13.7559 77.953 13.5498C77.9131 13.3315 77.95 13.0869 78.0638 12.8158C78.1568 12.5942 78.2985 12.4139 78.4886 12.2751C78.6838 12.1239 78.8921 12.0286 79.1135 11.9891C79.3475 11.9548 79.5769 11.9835 79.8017 12.0754Z" fill="#C6C2B7"/>
<path d="M98.1031 15.0864L95.2558 12.9968L89.6612 20.4081L88.2457 19.3693L93.8403 11.9581L91.0257 9.8925L91.9218 8.70541L98.9992 13.8992L98.1031 15.0864Z" fill="#C6C2B7"/>
<path fill-rule="evenodd" clip-rule="evenodd" d="M103.74 26.8086C103.054 27.3926 102.366 27.8206 101.675 28.0923C101.003 28.3654 100.337 28.4925 99.6768 28.4734C99.0257 28.4645 98.3951 28.3057 97.7851 27.9973C97.1943 27.6903 96.6469 27.2492 96.143 26.6743C95.6744 26.1397 95.3332 25.567 95.1195 24.9562C94.916 24.3366 94.8526 23.7036 94.929 23.0569C95.0056 22.4102 95.2207 21.7688 95.5745 21.1325C95.9473 20.4976 96.4764 19.8882 97.1618 19.3042C98.0723 18.5283 98.9722 18.0258 99.8615 17.7967C100.761 17.5588 101.622 17.5828 102.445 17.8687C103.277 18.1458 104.034 18.6728 104.715 19.4495C105.36 20.1858 105.758 20.9752 105.906 21.8175C106.074 22.6614 105.978 23.5098 105.617 24.363C105.276 25.2176 104.65 26.0327 103.74 26.8086ZM98.3686 20.681C97.7242 21.2301 97.2322 21.7903 96.8929 22.3614C96.5726 22.9339 96.4393 23.5056 96.493 24.0766C96.5467 24.6475 96.8123 25.2053 97.2897 25.75C97.7672 26.2947 98.2884 26.6346 98.8537 26.7697C99.4188 26.9048 100.007 26.8525 100.619 26.6129C101.251 26.3747 101.889 25.9809 102.533 25.4318C103.188 24.8739 103.67 24.313 103.98 23.7493C104.29 23.1856 104.413 22.6225 104.349 22.0603C104.304 21.4994 104.039 20.9416 103.553 20.3868C102.828 19.5597 102.026 19.1949 101.146 19.2925C100.266 19.39 99.3405 19.8528 98.3686 20.681Z" fill="#C6C2B7"/>
<path d="M112.607 34.4348L110.927 31.352L102.672 35.7246L101.838 34.192L110.092 29.8194L108.431 26.7719L109.753 26.0715L113.929 33.7344L112.607 34.4348Z" fill="#C6C2B7"/>
<path d="M110.772 44.9217C110.653 44.9428 110.478 44.9668 110.25 44.9936C110.037 45.0311 109.803 45.0656 109.547 45.0971C109.306 45.1262 109.071 45.1542 108.842 45.181C108.627 45.2054 108.451 45.2228 108.315 45.2332L118.305 49.3018L118.69 51.4278L107.99 53.3151L107.697 51.701L114.844 50.4403C115.193 50.3924 115.535 50.3457 115.869 50.3002C116.218 50.2523 116.48 50.2196 116.655 50.2022L106.693 46.1695L106.303 44.0238L117.005 42.1365L117.301 43.7703L110.772 44.9217Z" fill="#C6C2B7"/>
<path d="M77.1307 102.316C77.4419 102.461 77.7822 102.468 78.1513 102.338C78.5204 102.208 78.7785 101.989 78.9255 101.682C79.0726 101.375 79.0801 101.04 78.9478 100.676C78.8156 100.312 78.5939 100.057 78.2827 99.9122C77.9715 99.7672 77.6314 99.7599 77.2621 99.8903C76.893 100.021 76.6349 100.239 76.4879 100.546C76.3408 100.853 76.3334 101.188 76.4656 101.552C76.5978 101.916 76.8196 102.171 77.1307 102.316Z" fill="#C6C2B7"/>
<path fill-rule="evenodd" clip-rule="evenodd" d="M39.2824 97.7213L37.6897 97.0709L37.3644 111.224L39.1445 111.95L49.0825 101.724L47.5085 101.081L44.7766 103.926L39.1738 101.638L39.2824 97.7213ZM39.1352 103.246L43.6511 105.089L38.8802 110.176L39.1352 103.246Z" fill="#C6C2B7"/>
<path d="M34.2947 97.515L27.6538 107.641L29.0163 108.51L35.6901 98.3333C36.1894 97.572 36.3955 96.9017 36.3085 96.3224C36.2102 95.7358 35.8148 95.2216 35.1222 94.7801C34.895 94.6353 34.6589 94.5165 34.4138 94.4237C34.1761 94.3199 33.9406 94.2491 33.7076 94.2117L32.7153 95.2459C33.0238 95.3156 33.2629 95.3808 33.4326 95.4413C33.6021 95.5018 33.8005 95.6045 34.0276 95.7493C34.3796 95.9736 34.5837 96.2149 34.6398 96.473C34.6886 96.7422 34.5736 97.0896 34.2947 97.515Z" fill="#C6C2B7"/>
<path fill-rule="evenodd" clip-rule="evenodd" d="M21.1881 96.0677C21.4403 96.8596 21.9191 97.5767 22.6245 98.2187C23.32 98.8517 24.0831 99.265 24.9139 99.4587C25.7446 99.6524 26.5845 99.6004 27.4336 99.3027C28.2736 99.0149 29.065 98.4742 29.8079 97.6807C30.5507 96.8872 31.0387 96.0613 31.2718 95.2031C31.4957 94.3546 31.4767 93.5298 31.2145 92.7288C30.9524 91.9278 30.4735 91.2108 29.7781 90.5778C29.0727 89.9357 28.3096 89.5224 27.4888 89.3378C26.658 89.1442 25.8227 89.1912 24.9827 89.4791C24.1336 89.7768 23.3377 90.3223 22.5948 91.1158C21.8519 91.9092 21.3685 92.7302 21.1446 93.5787C20.9115 94.437 20.926 95.2667 21.1881 96.0677ZM25.1867 98.0469C24.6181 97.9467 24.0804 97.6659 23.5738 97.2048C23.067 96.7437 22.7403 96.2376 22.5935 95.6868C22.4469 95.136 22.4763 94.5639 22.6819 93.9709C22.8684 93.3787 23.2368 92.7887 23.787 92.2009C24.3281 91.6229 24.8952 91.2138 25.4883 90.9734C26.0715 90.7239 26.6473 90.6494 27.2159 90.7495C27.7845 90.8498 28.3221 91.1305 28.8289 91.5916C29.3356 92.0529 29.6623 92.5589 29.809 93.1097C29.9557 93.6606 29.9313 94.237 29.7357 94.8391C29.53 95.4321 29.1567 96.0177 28.6156 96.5956C28.0654 97.1834 27.5032 97.5971 26.9293 97.8367C26.3361 98.0771 25.7554 98.1472 25.1867 98.0469Z" fill="#C6C2B7"/>
<path d="M15.5197 90.1108L13.1906 91.7812L14.5059 92.8162L16.4741 91.4046L17.6672 93.0217L18.7988 92.2101L17.6058 90.5929L22.641 86.9815C23.1579 86.5943 23.5048 86.1807 23.6818 85.7405C23.8398 85.2975 23.8641 84.8431 23.7547 84.3776C23.6343 83.9198 23.4231 83.4862 23.1208 83.0766C22.7948 82.6345 22.4428 82.2935 22.065 82.0533C21.6793 81.8024 21.2801 81.6353 20.8676 81.5521L20.1028 82.793C20.4238 82.843 20.7226 82.942 20.9989 83.09C21.2752 83.2379 21.5288 83.4682 21.7595 83.7809C22.0219 84.1366 22.1383 84.4983 22.1085 84.8659C22.0787 85.2335 21.8615 85.5623 21.457 85.8525L16.6513 89.2991L14.4799 86.3559L13.3482 87.1676L15.5197 90.1108Z" fill="#C6C2B7"/>
<path d="M10.3717 81.812L7.78592 83.0625L8.901 84.305L11.0862 83.2483L11.9792 85.0438L13.2358 84.4362L12.3427 82.6407L17.9329 79.9374C18.5097 79.6436 18.9236 79.295 19.1747 78.8915C19.4076 78.4819 19.5109 78.0384 19.4844 77.5613C19.4456 77.0899 19.3132 76.6269 19.087 76.1721C18.8429 75.6812 18.5557 75.2856 18.2254 74.985C17.8892 74.6724 17.5252 74.4401 17.1333 74.2881L16.1633 75.3808C16.4709 75.4844 16.748 75.6326 16.9944 75.8253C17.2408 76.018 17.4503 76.2878 17.623 76.635C17.8196 77.0299 17.871 77.406 17.7776 77.763C17.6841 78.12 17.4127 78.4072 16.9636 78.6243L11.6281 81.2044L10.0027 77.9367L8.74624 78.5443L10.3717 81.812Z" fill="#C6C2B7"/>
<path d="M5.45399 76.0986C5.5888 75.8172 5.59987 75.5052 5.48717 75.1629C5.37448 74.8205 5.18185 74.5808 4.9093 74.4438C4.61971 74.2982 4.30129 74.2809 3.95405 74.3921C3.6068 74.5032 3.36578 74.6994 3.23095 74.9808C3.0791 75.2537 3.05952 75.5613 3.17222 75.9037C3.28491 76.246 3.48606 76.49 3.77565 76.6357C4.04821 76.7727 4.3581 76.7857 4.70535 76.6746C5.05259 76.5634 5.30214 76.3714 5.45399 76.0986Z" fill="#C6C2B7"/>
<path d="M7.08873 73.8094L16.7344 70.723L17.2352 72.2447L7.5896 75.3311L7.08873 73.8094Z" fill="#C6C2B7"/>
<path d="M13.1694 66.7225C13.0929 66.3433 13.1504 66.0126 13.3417 65.7305C13.533 65.4484 13.8209 65.2697 14.2055 65.1943C14.5901 65.119 14.9255 65.1756 15.2116 65.3642C15.4977 65.5529 15.679 65.8367 15.7554 66.216C15.8319 66.5951 15.7744 66.9258 15.5831 67.208C15.3919 67.4901 15.1038 67.6688 14.7193 67.7442C14.3347 67.8195 13.9993 67.7629 13.7132 67.5742C13.4271 67.3856 13.2457 67.1018 13.1694 66.7225Z" fill="#C6C2B7"/>
</svg>
