<svg width="32" height="32" fill="none" xmlns="http://www.w3.org/2000/svg"><g clip-path="url(#a)"><path fill="#fff" d="M0 0h32v32H0z"/><path fill-rule="evenodd" clip-rule="evenodd" d="M60.071 11.753C60.071 8.719 61.955 7 65.128 7c3.148 0 4.943 1.782 4.943 4.841v7.825c-.075 3.552-1.757 5.347-5.057 5.334-3.3-.013-4.943-1.833-4.943-5.398v-7.85Zm6.365 9.218c.06-.197.08-.405.057-.61v-8.848a1.44 1.44 0 0 0-2.5-1.105 1.44 1.44 0 0 0-.37 1.105v8.848a1.492 1.492 0 0 0 1.442 1.681 1.517 1.517 0 0 0 1.371-1.07Z" fill="#252525"/><path d="M81.437 7.392h-8.989v3.046h2.984v14.145h3.224V10.438h2.781V7.392ZM83.308 7.392h8.976v3.046h-2.781v14.145h-3.224V10.438h-2.97V7.392ZM94.901 7.392h3.528v17.203H94.9V7.392ZM49.477 7.392v17.19h8.015v-3.248h-4.475V7.392h-3.54Z" fill="#252525"/><path fill-rule="evenodd" clip-rule="evenodd" d="M39.362 7.392h4.324l3.426 17.19h-3.451l-.569-3.5h-3.11l-.48 3.5h-3.49l3.35-17.19Zm.961 10.668v.14h2.238l-1.024-7.812v-.114h-.215l-.999 7.786Z" fill="#252525"/><path d="M27.036 7.392h-3.527v13.651a1.062 1.062 0 0 1-2.112 0v-2.085h-3.223v2.06c0 2.427 1.706 3.931 4.437 3.931a4.032 4.032 0 0 0 4.425-3.956V7.392Z" fill="#252525"/><path fill-rule="evenodd" clip-rule="evenodd" d="M8.363 7.392h4.324l3.426 17.19h-3.464l-.57-3.5H8.983l-.48 3.5H5l3.363-17.19Zm.96 10.668v.14H11.6l-1.036-7.812v-.114h-.24l-1 7.786Z" fill="#252525"/></g><defs><clipPath id="a"><path fill="#fff" d="M0 0h32v32H0z"/></clipPath></defs></svg>