<svg width="84" height="17" fill="none" xmlns="http://www.w3.org/2000/svg"><path fill-rule="evenodd" clip-rule="evenodd" d="M48.944 5.158c0-2.702 1.674-4.232 4.494-4.232 2.798 0 4.393 1.587 4.393 4.31v6.968c-.067 3.162-1.561 4.76-4.494 4.75-2.933-.012-4.393-1.633-4.393-4.807v-6.99Zm5.657 8.208c.053-.176.07-.36.05-.543v-7.88a1.285 1.285 0 0 0-1.275-1.402 1.279 1.279 0 0 0-1.215.876c-.056.17-.077.349-.06.527v7.879a1.33 1.33 0 0 0 1.281 1.496 1.345 1.345 0 0 0 1.219-.953Z" fill="#252525"/><path d="M67.933 1.275h-7.99v2.712h2.653v12.595h2.865V3.987h2.472V1.275ZM69.596 1.275h7.977v2.712h-2.472v12.595h-2.865V3.987h-2.64V1.275ZM79.899 1.275h3.135v15.318h-3.135V1.275ZM39.528 1.275v15.307h7.124v-2.893h-3.978V1.275h-3.146Z" fill="#252525"/><path fill-rule="evenodd" clip-rule="evenodd" d="M30.54 1.275h3.842l3.045 15.307H34.36l-.506-3.118H31.09l-.427 3.118h-3.101l2.977-15.307Zm.853 9.5v.123h1.989l-.91-6.956v-.101h-.191l-.888 6.933Z" fill="#252525"/><path d="M19.584 1.275H16.45V13.43a.946.946 0 0 1-.939.843.943.943 0 0 1-.938-.843v-1.857h-2.865v1.835c0 2.16 1.517 3.5 3.944 3.5a3.577 3.577 0 0 0 3.61-2.084c.206-.452.315-.942.322-1.439V1.275Z" fill="#252525"/><path fill-rule="evenodd" clip-rule="evenodd" d="M2.989 1.275H6.83l3.045 15.307H6.798l-.506-3.118H3.54l-.427 3.118H0L2.989 1.275Zm.854 9.5v.123h2.022l-.921-6.956v-.101H4.73l-.887 6.933Z" fill="#252525"/></svg>