<svg width="16" height="17" viewBox="0 0 16 17" fill="none" xmlns="http://www.w3.org/2000/svg">
<path d="M8.3499 3.00002C8.3499 2.80672 8.1932 2.65002 7.9999 2.65002C7.8066 2.65002 7.6499 2.80672 7.6499 3.00002V8.15002H2.4999C2.3066 8.15002 2.1499 8.30672 2.1499 8.50002C2.1499 8.69332 2.3066 8.85002 2.4999 8.85002H7.6499V14C7.6499 14.1933 7.8066 14.35 7.9999 14.35C8.1932 14.35 8.3499 14.1933 8.3499 14V8.85002H13.4999C13.6932 8.85002 13.8499 8.69332 13.8499 8.50002C13.8499 8.30672 13.6932 8.15002 13.4999 8.15002H8.3499V3.00002Z" fill="#252525"/>
</svg>
